AC-Jade.ufo
<glyph name="parenright" format="2">
	<advance width="334"/>
	<unicode hex="0029"/>
	<outline>
		<contour>
			<point x="54" y="-125" type="line"/>
			<point x="188.328" y="-28.483"/>
			<point x="274" y="146.896"/>
			<point x="274" y="326" type="curve" smooth="yes"/>
			<point x="274" y="505.104"/>
			<point x="188.328" y="680.483"/>
			<point x="54" y="777" type="curve"/>
			<point x="46" y="776" type="line"/>
			<point x="10" y="727" type="line"/>
			<point x="10" y="720" type="line"/>
			<point x="110.498" y="649.353"/>
			<point x="174" y="497.144"/>
			<point x="174" y="326" type="curve" smooth="yes"/>
			<point x="174" y="155.851"/>
			<point x="110.498" y="3.647"/>
			<point x="10" y="-67" type="curve"/>
			<point x="10" y="-74" type="line"/>
			<point x="46" y="-124" type="line"/>
		</contour>
	</outline>
</glyph>
<glyph name="asterisk" format="2">
	<advance width="439"/>
	<unicode hex="002A"/>
	<outline>
		<contour>
			<point x="201" y="596" type="line"/>
			<point x="237" y="596" type="line"/>
			<point x="242" y="600" type="line"/>
			<point x="257" y="732" type="line"/>
			<point x="251" y="737" type="line"/>
			<point x="193" y="737" type="line"/>
			<point x="186" y="732" type="line"/>
			<point x="198" y="600" type="line"/>
		</contour>
		<contour>
			<point x="208" y="614" type="line"/>
			<point x="220" y="579" type="line"/>
			<point x="225" y="576" type="line"/>
			<point x="355" y="603" type="line"/>
			<point x="359" y="610" type="line"/>
			<point x="341" y="665" type="line"/>
			<point x="334" y="670" type="line"/>
			<point x="212" y="619" type="line"/>
		</contour>
		<contour>
			<point x="244" y="606" type="line"/>
			<point x="216" y="585" type="line"/>
			<point x="214" y="578" type="line"/>
			<point x="280" y="463" type="line"/>
			<point x="288" y="462" type="line"/>
			<point x="335" y="496" type="line"/>
			<point x="337" y="504" type="line"/>
			<point x="251" y="604" type="line"/>
		</contour>
		<contour>
			<point x="229" y="582" type="line"/>
			<point x="200" y="603" type="line"/>
			<point x="193" y="602" type="line"/>
			<point x="104" y="504" type="line"/>
			<point x="105" y="496" type="line"/>
			<point x="152" y="462" type="line"/>
			<point x="160" y="462" type="line"/>
			<point x="229" y="575" type="line"/>
		</contour>
		<contour>
			<point x="218" y="576" type="line"/>
			<point x="229" y="610" type="line"/>
			<point x="226" y="616" type="line"/>
			<point x="105" y="671" type="line"/>
			<point x="98" y="667" type="line"/>
			<point x="80" y="612" type="line"/>
			<point x="83" y="604" type="line"/>
			<point x="211" y="574" type="line"/>
		</contour>
	</outline>
</glyph>
<glyph name="hyphen" format="2">
	<advance width="400"/>
	<unicode hex="002D"/>
	<outline>
		<contour>
			<point x="350" y="261" type="line"/>
			<point x="309" y="263"/>
			<point x="289" y="263"/>
			<point x="200" y="263" type="curve" smooth="yes"/>
			<point x="110" y="263"/>
			<point x="90" y="263"/>
			<point x="47" y="261" type="curve"/>
			<point x="40" y="267" type="line"/>
			<point x="40" y="351" type="line"/>
			<point x="48" y="356" type="line"/>
			<point x="91" y="355"/>
			<point x="111" y="354"/>
			<point x="200" y="354" type="curve" smooth="yes"/>
			<point x="290" y="354"/>
			<point x="309" y="355"/>
			<point x="350" y="356" type="curve"/>
			<point x="360" y="351" type="line"/>
			<point x="360" y="266" type="line"/>
		</contour>
	</outline>
</glyph>
<glyph name="period" format="2">
	<advance width="232"/>
	<unicode hex="002E"/>
	<outline>
		<contour>
			<point x="152" y="56" type="curve" smooth="yes"/>
			<point x="152" y="27"/>
			<point x="115" y="-6"/>
			<point x="91" y="-6" type="curve" smooth="yes"/>
			<point x="67" y="-6"/>
			<point x="30" y="27"/>
			<point x="30" y="56" type="curve" smooth="yes"/>
			<point x="30" y="85"/>
			<point x="67" y="118"/>
			<point x="91" y="118" type="curve" smooth="yes"/>
			<point x="115" y="118"/>
			<point x="152" y="85"/>
		</contour>
	</outline>
</glyph>
<glyph name="zero" format="2">
	<advance width="600"/>
	<unicode hex="0030"/>
	<outline>
		<contour>
			<point x="300" y="-10" type="curve" smooth="yes"/>
			<point x="472" y="-10"/>
			<point x="540" y="151"/>
			<point x="540" y="350" type="curve" smooth="yes"/>
			<point x="540" y="549"/>
			<point x="472" y="710"/>
			<point x="300" y="710" type="curve" smooth="yes"/>
			<point x="128" y="710"/>
			<point x="60" y="549"/>
			<point x="60" y="350" type="curve" smooth="yes"/>
			<point x="60" y="151"/>
			<point x="128" y="-10"/>
		</contour>
		<contour>
			<point x="300" y="80" type="curve" smooth="yes"/>
			<point x="187" y="80"/>
			<point x="160" y="201"/>
			<point x="160" y="350" type="curve" smooth="yes"/>
			<point x="160" y="499"/>
			<point x="187" y="620"/>
			<point x="300" y="620" type="curve" smooth="yes"/>
			<point x="413" y="620"/>
			<point x="440" y="499"/>
			<point x="440" y="350" type="curve" smooth="yes"/>
			<point x="440" y="201"/>
			<point x="413" y="80"/>
		</contour>
	</outline>
</glyph>
<glyph name="three" format="2">
	<advance width="497"/>
	<unicode hex="0033"/>
	<outline>
		<contour>
			<point x="239" y="-10" type="curve"/>
			<point x="355" y="-10"/>
			<point x="477" y="72"/>
			<point x="477" y="221" type="curve" smooth="yes"/>
			<point x="477" y="367"/>
			<point x="378" y="437"/>
			<point x="231" y="383" type="curve"/>
			<point x="238" y="368" type="line"/>
			<point x="354" y="405"/>
			<point x="431" y="463"/>
			<point x="431" y="560" type="curve" smooth="yes"/>
			<point x="431" y="663"/>
			<point x="356" y="710"/>
			<point x="266" y="710" type="curve"/>
			<point x="194" y="710"/>
			<point x="126" y="682"/>
			<point x="65" y="645" type="curve"/>
			<point x="63" y="640" type="line"/>
			<point x="85" y="591" type="line"/>
			<point x="89" y="589" type="line"/>
			<point x="150" y="612"/>
			<point x="191" y="626"/>
			<point x="242" y="626" type="curve" smooth="yes"/>
			<point x="302" y="626"/>
			<point x="341" y="604"/>
			<point x="341" y="551" type="curve"/>
			<point x="341" y="479"/>
			<point x="284" y="445"/>
			<point x="191" y="402" type="curve" smooth="yes"/>
			<point x="152" y="384" type="line"/>
			<point x="167" y="335" type="line"/>
			<point x="222" y="349" type="line" smooth="yes"/>
			<point x="321" y="374"/>
			<point x="387" y="315"/>
			<point x="387" y="226" type="curve" smooth="yes"/>
			<point x="387" y="117"/>
			<point x="339" y="74"/>
			<point x="265" y="74" type="curve"/>
			<point x="205" y="74"/>
			<point x="124" y="104"/>
			<point x="72" y="125" type="curve"/>
			<point x="64" y="124" type="line"/>
			<point x="30" y="35" type="line"/>
			<point x="36" y="27" type="line"/>
			<point x="94" y="6"/>
			<point x="159" y="-10"/>
		</contour>
	</outline>
</glyph>
<glyph name="seven" format="2">
	<advance width="461"/>
	<unicode hex="0037"/>
	<outline>
		<contour>
			<point x="387" y="611" type="curve"/>
			<point x="375" y="631" type="line"/>
			<point x="294" y="445"/>
			<point x="183" y="186"/>
			<point x="104" y="10" type="curve"/>
			<point x="109" y="0" type="line"/>
			<point x="206" y="0" type="line"/>
			<point x="214" y="10" type="line"/>
			<point x="253" y="135"/>
			<point x="365" y="449"/>
			<point x="440" y="625" type="curve"/>
			<point x="441" y="638" type="line"/>
			<point x="436" y="695" type="line"/>
			<point x="428" y="700" type="line"/>
			<point x="361" y="697"/>
			<point x="302" y="695"/>
			<point x="235" y="695" type="curve" smooth="yes"/>
			<point x="168" y="695"/>
			<point x="117" y="697"/>
			<point x="34" y="700" type="curve"/>
			<point x="29" y="694" type="line"/>
			<point x="20" y="612" type="line"/>
			<point x="29" y="605" type="line"/>
			<point x="149" y="611"/>
			<point x="258" y="611"/>
		</contour>
	</outline>
</glyph>
<glyph name="eight" format="2">
	<advance width="571"/>
	<unicode hex="0038"/>
	<outline>
		<contour>
			<point x="277" y="-10" type="curve" smooth="yes"/>
			<point x="422" y="-10"/>
			<point x="521" y="77"/>
			<point x="521" y="203" type="curve"/>
			<point x="521" y="419"/>
			<point x="180" y="409"/>
			<point x="180" y="548" type="curve"/>
			<point x="180" y="611"/>
			<point x="221" y="640"/>
			<point x="279" y="640" type="curve" smooth="yes"/>
			<point x="341" y="640"/>
			<point x="381" y="607"/>
			<point x="381" y="543" type="curve" smooth="yes"/>
			<point x="381" y="469"/>
			<point x="353" y="428"/>
			<point x="286" y="408" type="curve"/>
			<point x="211" y="381" type="line"/>
			<point x="123" y="359"/>
			<point x="50" y="280"/>
			<point x="50" y="180" type="curve" smooth="yes"/>
			<point x="50" y="68"/>
			<point x="144" y="-10"/>
		</contour>
		<contour>
			<point x="299" y="60" type="curve"/>
			<point x="205" y="60"/>
			<point x="150" y="109"/>
			<point x="150" y="187" type="curve"/>
			<point x="150" y="270"/>
			<point x="208" y="308"/>
			<point x="276" y="336" type="curve"/>
			<point x="324" y="362" type="line"/>
			<point x="419" y="393"/>
			<point x="481" y="452"/>
			<point x="481" y="540" type="curve" smooth="yes"/>
			<point x="481" y="640"/>
			<point x="402" y="710"/>
			<point x="286" y="710" type="curve"/>
			<point x="158" y="710"/>
			<point x="91" y="634"/>
			<point x="90" y="537" type="curve"/>
			<point x="90" y="323"/>
			<point x="427" y="340"/>
			<point x="427" y="181" type="curve" smooth="yes"/>
			<point x="427" y="100"/>
			<point x="373" y="60"/>
		</contour>
	</outline>
</glyph>
<glyph name="nine" format="2">
	<advance width="516"/>
	<unicode hex="0039"/>
	<outline>
		<contour>
			<point x="280" y="77"/>
			<point x="486" y="191"/>
			<point x="486" y="424" type="curve" smooth="yes"/>
			<point x="486" y="607"/>
			<point x="403" y="710"/>
			<point x="266" y="710" type="curve" smooth="yes"/>
			<point x="121" y="710"/>
			<point x="40" y="604"/>
			<point x="40" y="475" type="curve" smooth="yes"/>
			<point x="40" y="317"/>
			<point x="126" y="246"/>
			<point x="242" y="246" type="curve"/>
			<point x="327" y="246"/>
			<point x="379" y="301"/>
			<point x="424" y="358" type="curve"/>
			<point x="398" y="394" type="line"/>
			<point x="365" y="359"/>
			<point x="318" y="326"/>
			<point x="259" y="326" type="curve"/>
			<point x="175" y="326"/>
			<point x="130" y="392"/>
			<point x="130" y="481" type="curve" smooth="yes"/>
			<point x="130" y="571"/>
			<point x="174" y="625"/>
			<point x="268" y="625" type="curve" smooth="yes"/>
			<point x="347" y="625"/>
			<point x="393" y="561"/>
			<point x="393" y="414" type="curve" smooth="yes"/>
			<point x="393" y="250"/>
			<point x="203" y="130"/>
			<point x="97" y="50" type="curve"/>
			<point x="95" y="45" type="line"/>
			<point x="130" y="-8" type="line"/>
			<point x="137" y="-11" type="line"/>
		</contour>
	</outline>
</glyph>
<glyph name="question" format="2">
	<advance width="474"/>
	<unicode hex="003F"/>
	<outline>
		<contour>
			<point x="145" y="209" type="line"/>
			<point x="238" y="209" type="line"/>
			<point x="244" y="219" type="line"/>
			<point x="236" y="319" type="line"/>
			<point x="222" y="303" type="line"/>
			<point x="325" y="351"/>
			<point x="429" y="405"/>
			<point x="429" y="548" type="curve" smooth="yes"/>
			<point x="429" y="689"/>
			<point x="346" y="750"/>
			<point x="222" y="750" type="curve" smooth="yes"/>
			<point x="140" y="750"/>
			<point x="74" y="727"/>
			<point x="17" y="684" type="curve"/>
			<point x="15" y="677" type="line"/>
			<point x="42" y="626" type="line"/>
			<point x="47" y="623" type="line"/>
			<point x="88" y="645"/>
			<point x="141" y="665"/>
			<point x="203" y="665" type="curve" smooth="yes"/>
			<point x="288" y="665"/>
			<point x="340" y="615"/>
			<point x="340" y="537" type="curve" smooth="yes"/>
			<point x="340" y="454"/>
			<point x="251" y="393"/>
			<point x="155" y="361" type="curve"/>
			<point x="141" y="334" type="line"/>
			<point x="139" y="219" type="line"/>
		</contour>
		<component base="period" xScale="1.2" yScale="1.2" xOffset="81"/>
	</outline>
</glyph>
<glyph name="at" format="2">
	<advance width="850"/>
	<unicode hex="0040"/>
	<outline>
		<contour>
			<point x="385" y="-166" type="curve" smooth="yes"/>
			<point x="484" y="-166"/>
			<point x="600" y="-141"/>
			<point x="719" y="-86" type="curve"/>
			<point x="720" y="-83" type="line"/>
			<point x="694" y="-5" type="line"/>
			<point x="691" y="-4" type="line"/>
			<point x="576" y="-59"/>
			<point x="473" y="-87"/>
			<point x="388" y="-87" type="curve" smooth="yes"/>
			<point x="237" y="-87"/>
			<point x="144" y="-1"/>
			<point x="144" y="224" type="curve" smooth="yes"/>
			<point x="144" y="520"/>
			<point x="305" y="660"/>
			<point x="455" y="660" type="curve" smooth="yes"/>
			<point x="584" y="660"/>
			<point x="705" y="555"/>
			<point x="705" y="355" type="curve" smooth="yes"/>
			<point x="705" y="227"/>
			<point x="673" y="132"/>
			<point x="612" y="132" type="curve" smooth="yes"/>
			<point x="577" y="132"/>
			<point x="564" y="155"/>
			<point x="564" y="198" type="curve" smooth="yes"/>
			<point x="564" y="222"/>
			<point x="568" y="252"/>
			<point x="574" y="288" type="curve" smooth="yes"/>
			<point x="586" y="358"/>
			<point x="601" y="422"/>
			<point x="610" y="485" type="curve"/>
			<point x="605" y="495" type="line"/>
			<point x="525" y="502" type="line"/>
			<point x="517" y="495" type="line"/>
			<point x="505" y="401" type="line"/>
			<point x="488" y="270" type="line" smooth="yes"/>
			<point x="476" y="176"/>
			<point x="442" y="129"/>
			<point x="389" y="129" type="curve" smooth="yes"/>
			<point x="353" y="129"/>
			<point x="330" y="155"/>
			<point x="330" y="219" type="curve" smooth="yes"/>
			<point x="330" y="225"/>
			<point x="331" y="232"/>
			<point x="331" y="239" type="curve" smooth="yes"/>
			<point x="340" y="388"/>
			<point x="372" y="432"/>
			<point x="410" y="432" type="curve" smooth="yes"/>
			<point x="455" y="432"/>
			<point x="496" y="394"/>
			<point x="507" y="343" type="curve"/>
			<point x="534" y="453" type="line"/>
			<point x="456" y="453" type="line"/>
			<point x="538" y="392" type="line"/>
			<point x="505" y="471"/>
			<point x="451" y="509"/>
			<point x="395" y="509" type="curve" smooth="yes"/>
			<point x="305" y="509"/>
			<point x="250" y="399"/>
			<point x="242" y="239" type="curve" smooth="yes"/>
			<point x="236" y="121"/>
			<point x="299" y="55"/>
			<point x="374" y="55" type="curve" smooth="yes"/>
			<point x="459" y="55"/>
			<point x="525" y="126"/>
			<point x="525" y="217" type="curve"/>
			<point x="505" y="190" type="line"/>
			<point x="508" y="133"/>
			<point x="525" y="57"/>
			<point x="596" y="57" type="curve" smooth="yes"/>
			<point x="722" y="57"/>
			<point x="795" y="211"/>
			<point x="795" y="355" type="curve" smooth="yes"/>
			<point x="795" y="602"/>
			<point x="630" y="732"/>
			<point x="457" y="732" type="curve" smooth="yes"/>
			<point x="262" y="732"/>
			<point x="55" y="568"/>
			<point x="55" y="220" type="curve" smooth="yes"/>
			<point x="55" y="-50"/>
			<point x="191" y="-166"/>
		</contour>
	</outline>
</glyph>
<glyph name="A" format="2">
	<advance width="581"/>
	<unicode hex="0041"/>
	<anchor x="527" y="10" name="ogonek"/>
	<anchor x="291" y="0" name="bottom"/>
	<anchor x="291" y="700" name="top"/>
	<outline>
		<contour>
			<point x="462" y="0" type="line"/>
			<point x="469" y="0"/>
			<point x="553" y="0"/>
			<point x="560" y="0" type="curve"/>
			<point x="566" y="10" type="line"/>
			<point x="481" y="227"/>
			<point x="415" y="473"/>
			<point x="358" y="690" type="curve"/>
			<point x="352" y="700" type="line"/>
			<point x="224" y="700" type="line"/>
			<point x="218" y="690" type="line"/>
			<point x="173" y="500"/>
			<point x="93" y="228"/>
			<point x="15" y="13" type="curve"/>
			<point x="20" y="3" type="line"/>
			<point x="27" y="3"/>
			<point x="100" y="3"/>
			<point x="107" y="3" type="curve"/>
			<point x="113" y="13" type="line"/>
			<point x="154" y="201"/>
			<point x="248" y="476"/>
			<point x="295" y="660" type="curve"/>
			<point x="267" y="660" type="line"/>
			<point x="323" y="469"/>
			<point x="407" y="227"/>
			<point x="455" y="8" type="curve"/>
		</contour>
		<contour>
			<point x="131" y="191" type="line"/>
			<point x="136" y="191"/>
			<point x="225" y="193"/>
			<point x="266" y="193" type="curve" smooth="yes"/>
			<point x="307" y="193"/>
			<point x="412" y="192"/>
			<point x="417" y="191" type="curve"/>
			<point x="417" y="280" type="line"/>
			<point x="413" y="280"/>
			<point x="306" y="278"/>
			<point x="266" y="278" type="curve" smooth="yes"/>
			<point x="226" y="278"/>
			<point x="130" y="280"/>
			<point x="126" y="280" type="curve"/>
		</contour>
	</outline>
</glyph>
<glyph name="D" format="2">
	<advance width="685"/>
	<unicode hex="0044"/>
	<anchor x="343" y="350" name="center"/>
	<anchor x="343" y="0" name="bottom"/>
	<anchor x="326" y="700" name="top"/>
	<outline>
		<contour>
			<point x="85" y="0" type="line"/>
			<point x="323" y="0" type="line" smooth="yes"/>
			<point x="516" y="0"/>
			<point x="615" y="178"/>
			<point x="615" y="355" type="curve" smooth="yes"/>
			<point x="615" y="528"/>
			<point x="520" y="700"/>
			<point x="326" y="700" type="curve" smooth="yes"/>
			<point x="85" y="700" type="line"/>
			<point x="80" y="691" type="line"/>
			<point x="84" y="592"/>
			<point x="87" y="461"/>
			<point x="87" y="349" type="curve" smooth="yes"/>
			<point x="87" y="239"/>
			<point x="84" y="111"/>
			<point x="80" y="12" type="curve"/>
		</contour>
		<contour>
			<point x="182" y="66" type="line"/>
			<point x="182" y="129"/>
			<point x="177" y="243"/>
			<point x="177" y="351" type="curve" smooth="yes"/>
			<point x="177" y="463"/>
			<point x="179" y="569"/>
			<point x="182" y="636" type="curve"/>
			<point x="153" y="619" type="line"/>
			<point x="175" y="620"/>
			<point x="223" y="621"/>
			<point x="308" y="621" type="curve" smooth="yes"/>
			<point x="446" y="621"/>
			<point x="516" y="490"/>
			<point x="516" y="358" type="curve" smooth="yes"/>
			<point x="516" y="222"/>
			<point x="443" y="85"/>
			<point x="295" y="85" type="curve" smooth="yes"/>
			<point x="143" y="85" type="line"/>
		</contour>
	</outline>
</glyph>
<glyph name="E" format="2">
	<advance width="485"/>
	<unicode hex="0045"/>
	<anchor x="404" y="9" name="ogonek"/>
	<anchor x="270" y="699" name="top"/>
	<anchor x="15" y="700" name="topleft"/>
	<anchor x="243" y="0" name="bottom"/>
	<outline>
		<contour>
			<point x="85" y="0" type="line"/>
			<point x="130.09375" y="2.4375"/>
			<point x="189" y="4"/>
			<point x="268" y="4" type="curve" smooth="yes"/>
			<point x="347" y="4"/>
			<point x="432" y="3"/>
			<point x="445" y="0" type="curve"/>
			<point x="450" y="10" type="line"/>
			<point x="450" y="81" type="line"/>
			<point x="445" y="90" type="line"/>
			<point x="340" y="83"/>
			<point x="291" y="82"/>
			<point x="154" y="82" type="curve"/>
			<point x="188" y="53" type="line"/>
			<point x="180" y="116"/>
			<point x="180" y="287"/>
			<point x="180" y="351" type="curve" smooth="yes"/>
			<point x="180" y="415"/>
			<point x="180" y="584"/>
			<point x="188" y="647" type="curve"/>
			<point x="154" y="618" type="line"/>
			<point x="295" y="618"/>
			<point x="342" y="617"/>
			<point x="445" y="610" type="curve"/>
			<point x="450" y="619" type="line"/>
			<point x="450" y="690" type="line"/>
			<point x="445" y="700" type="line"/>
			<point x="385" y="697"/>
			<point x="367" y="696"/>
			<point x="273" y="696" type="curve" smooth="yes"/>
			<point x="179" y="696"/>
			<point x="127" y="698"/>
			<point x="85" y="700" type="curve"/>
			<point x="80" y="690" type="line"/>
			<point x="84" y="631"/>
			<point x="90" y="442"/>
			<point x="90" y="351" type="curve" smooth="yes"/>
			<point x="90" y="260"/>
			<point x="84" y="69"/>
			<point x="80" y="10" type="curve"/>
		</contour>
		<contour>
			<point x="381" y="305" type="curve"/>
			<point x="391" y="309" type="line"/>
			<point x="391" y="391" type="line"/>
			<point x="381" y="395" type="line"/>
			<point x="315" y="390"/>
			<point x="250" y="387"/>
			<point x="150" y="387" type="curve"/>
			<point x="150" y="313" type="line"/>
			<point x="251" y="313"/>
			<point x="312" y="310"/>
		</contour>
	</outline>
</glyph>
<glyph name="F" format="2">
	<advance width="467"/>
	<unicode hex="0046"/>
	<outline>
		<contour>
			<point x="85" y="-2" type="line"/>
			<point x="98" y="-2"/>
			<point x="119" y="-1"/>
			<point x="140" y="-1" type="curve" smooth="yes"/>
			<point x="160" y="-1"/>
			<point x="181" y="-2"/>
			<point x="194" y="-2" type="curve"/>
			<point x="201" y="8" type="line"/>
			<point x="192" y="100"/>
			<point x="187" y="153"/>
			<point x="187" y="361" type="curve" smooth="yes"/>
			<point x="187" y="419"/>
			<point x="187" y="587"/>
			<point x="195" y="645" type="curve"/>
			<point x="171" y="617" type="line"/>
			<point x="232" y="617"/>
			<point x="397" y="611"/>
			<point x="442" y="609" type="curve"/>
			<point x="447" y="618" type="line"/>
			<point x="447" y="688" type="line"/>
			<point x="442" y="698" type="line"/>
			<point x="431" y="698"/>
			<point x="333" y="696"/>
			<point x="286" y="696" type="curve" smooth="yes"/>
			<point x="227" y="696"/>
			<point x="117" y="699"/>
			<point x="92" y="698" type="curve"/>
			<point x="87" y="688" type="line"/>
			<point x="92" y="619"/>
			<point x="96" y="430"/>
			<point x="96" y="355" type="curve" smooth="yes"/>
			<point x="96" y="277"/>
			<point x="84" y="82"/>
			<point x="80" y="8" type="curve"/>
		</contour>
		<contour>
			<point x="378" y="291" type="curve"/>
			<point x="388" y="295" type="line"/>
			<point x="388" y="377" type="line"/>
			<point x="378" y="381" type="line"/>
			<point x="338" y="379"/>
			<point x="195" y="373"/>
			<point x="137" y="373" type="curve"/>
			<point x="137" y="299" type="line"/>
			<point x="203" y="299"/>
			<point x="332" y="293"/>
		</contour>
	</outline>
</glyph>
<glyph name="G" format="2">
	<advance width="652"/>
	<unicode hex="0047"/>
	<outline>
		<contour>
			<point x="371" y="-10" type="curve" smooth="yes"/>
			<point x="430" y="-10"/>
			<point x="509" y="-3"/>
			<point x="581" y="48" type="curve"/>
			<point x="582" y="53" type="line"/>
			<point x="580" y="115"/>
			<point x="577" y="156"/>
			<point x="577" y="249" type="curve" smooth="yes"/>
			<point x="577" y="295"/>
			<point x="580" y="335"/>
			<point x="582" y="381" type="curve"/>
			<point x="577" y="386" type="line"/>
			<point x="558" y="385"/>
			<point x="524" y="384"/>
			<point x="477" y="384" type="curve" smooth="yes"/>
			<point x="425" y="384"/>
			<point x="379" y="385"/>
			<point x="360" y="386" type="curve"/>
			<point x="355" y="381" type="line"/>
			<point x="355" y="311" type="line"/>
			<point x="360" y="306" type="line"/>
			<point x="504" y="306" type="line"/>
			<point x="478" y="345" type="line"/>
			<point x="486" y="316"/>
			<point x="488" y="274"/>
			<point x="488" y="221" type="curve" smooth="yes"/>
			<point x="488" y="128"/>
			<point x="483" y="114"/>
			<point x="474" y="43" type="curve"/>
			<point x="532" y="114" type="line"/>
			<point x="494" y="93"/>
			<point x="446" y="80"/>
			<point x="374" y="80" type="curve" smooth="yes"/>
			<point x="252" y="80"/>
			<point x="170" y="136"/>
			<point x="170" y="350" type="curve" smooth="yes"/>
			<point x="170" y="558"/>
			<point x="245" y="620"/>
			<point x="369" y="620" type="curve" smooth="yes"/>
			<point x="437" y="620"/>
			<point x="493" y="602"/>
			<point x="541" y="585" type="curve"/>
			<point x="545" y="587" type="line"/>
			<point x="569" y="675" type="line"/>
			<point x="566" y="680" type="line"/>
			<point x="521" y="693"/>
			<point x="457" y="710"/>
			<point x="371" y="710" type="curve" smooth="yes"/>
			<point x="220" y="710"/>
			<point x="70" y="629"/>
			<point x="70" y="350" type="curve" smooth="yes"/>
			<point x="70" y="72"/>
			<point x="216" y="-10"/>
		</contour>
	</outline>
</glyph>
<glyph name="K" format="2">
	<advance width="540"/>
	<unicode hex="004B"/>
	<anchor x="270" y="700" name="top"/>
	<anchor x="270" y="0" name="bottom"/>
	<outline>
		<contour>
			<point x="104" y="0" type="line"/>
			<point x="203" y="0" type="line"/>
			<point x="208" y="10" type="line"/>
			<point x="201.6509" y="97.82926"/>
			<point x="198" y="248"/>
			<point x="198" y="354" type="curve" smooth="yes"/>
			<point x="198" y="454"/>
			<point x="203" y="624.43836"/>
			<point x="203" y="644" type="curve" smooth="yes"/>
			<point x="203" y="683"/>
			<point x="187" y="706"/>
			<point x="142" y="706" type="curve" smooth="yes"/>
			<point x="110" y="706"/>
			<point x="71" y="696"/>
			<point x="40" y="688" type="curve"/>
			<point x="48" y="625" type="line"/>
			<point x="119" y="629" type="line"/>
			<point x="98" y="658" type="line"/>
			<point x="104" y="572"/>
			<point x="109" y="487"/>
			<point x="109" y="356" type="curve" smooth="yes"/>
			<point x="109" y="244"/>
			<point x="105" y="93"/>
			<point x="99" y="10" type="curve"/>
		</contour>
		<contour>
			<point x="154" y="390" type="line"/>
			<point x="154" y="307" type="line"/>
			<point x="265" y="307" type="line"/>
			<point x="349" y="430"/>
			<point x="440" y="571"/>
			<point x="520" y="685" type="curve"/>
			<point x="515" y="700" type="line"/>
			<point x="434" y="700" type="line"/>
			<point x="426" y="696" type="line"/>
			<point x="349" y="574"/>
			<point x="308" y="499"/>
			<point x="222" y="384" type="curve"/>
			<point x="275" y="390" type="line"/>
		</contour>
		<contour>
			<point x="458" y="67" type="line"/>
			<point x="294" y="391" type="line"/>
			<point x="210" y="346" type="line"/>
			<point x="294" y="165" type="line" smooth="yes"/>
			<point x="349" y="46"/>
			<point x="367" y="-10"/>
			<point x="433" y="-10" type="curve" smooth="yes"/>
			<point x="475" y="-10"/>
			<point x="498" y="1"/>
			<point x="542" y="32" type="curve"/>
			<point x="524" y="88" type="line"/>
			<point x="427" y="77" type="line"/>
		</contour>
	</outline>
</glyph>
<glyph name="L" format="2">
	<advance width="460"/>
	<unicode hex="004C"/>
	<anchor x="249" y="4" name="bottom"/>
	<anchor x="230" y="700" name="top"/>
	<anchor x="445" y="700" name="topright"/>
	<anchor x="230" y="350" name="center"/>
	<outline>
		<contour>
			<point x="85" y="0" type="line"/>
			<point x="154" y="3"/>
			<point x="204" y="4"/>
			<point x="249" y="4" type="curve" smooth="yes"/>
			<point x="296" y="4"/>
			<point x="380" y="3"/>
			<point x="435" y="0" type="curve"/>
			<point x="440" y="10" type="line"/>
			<point x="440" y="80" type="line"/>
			<point x="435" y="89" type="line"/>
			<point x="379" y="85"/>
			<point x="258" y="81"/>
			<point x="144" y="81" type="curve"/>
			<point x="187" y="53" type="line"/>
			<point x="184" y="102"/>
			<point x="180" y="196"/>
			<point x="180" y="333" type="curve" smooth="yes"/>
			<point x="180" y="500"/>
			<point x="183" y="641"/>
			<point x="188" y="690" type="curve"/>
			<point x="183" y="700" type="line"/>
			<point x="85" y="700" type="line"/>
			<point x="80" y="690" type="line"/>
			<point x="84" y="631"/>
			<point x="90" y="501"/>
			<point x="90" y="335" type="curve" smooth="yes"/>
			<point x="90" y="219"/>
			<point x="86" y="170"/>
			<point x="80" y="10" type="curve"/>
		</contour>
	</outline>
</glyph>
<glyph name="N" format="2">
	<advance width="696"/>
	<unicode hex="004E"/>
	<anchor x="339" y="690" name="top"/>
	<anchor x="348" y="0" name="bottom"/>
	<outline>
		<contour>
			<point x="90" y="0" type="line"/>
			<point x="194" y="0" type="line"/>
			<point x="199" y="10" type="line"/>
			<point x="190" y="113"/>
			<point x="180" y="193"/>
			<point x="180" y="470" type="curve"/>
			<point x="162" y="648" type="line"/>
			<point x="149" y="599" type="line"/>
			<point x="192" y="512" type="line"/>
			<point x="530" y="0" type="line"/>
			<point x="611" y="0" type="line"/>
			<point x="616" y="6" type="line"/>
			<point x="612" y="35"/>
			<point x="603" y="213"/>
			<point x="603" y="322" type="curve" smooth="yes"/>
			<point x="603" y="475"/>
			<point x="610" y="669"/>
			<point x="613" y="690" type="curve"/>
			<point x="608" y="700" type="line"/>
			<point x="513" y="700" type="line"/>
			<point x="508" y="690" type="line"/>
			<point x="517" y="569"/>
			<point x="518" y="446"/>
			<point x="518" y="278" type="curve"/>
			<point x="531" y="59" type="line"/>
			<point x="557" y="107" type="line"/>
			<point x="511" y="205" type="line"/>
			<point x="178" y="700" type="line"/>
			<point x="85" y="700" type="line"/>
			<point x="80" y="694" type="line"/>
			<point x="84" y="667"/>
			<point x="95" y="505"/>
			<point x="95" y="405" type="curve" smooth="yes"/>
			<point x="95" y="276"/>
			<point x="85" y="26"/>
			<point x="85" y="10" type="curve"/>
		</contour>
	</outline>
</glyph>
<glyph name="P" format="2">
	<advance width="565"/>
	<unicode hex="0050"/>
	<outline>
		<contour>
			<point x="85" y="0" type="line"/>
			<point x="190" y="0" type="line"/>
			<point x="195" y="10" type="line"/>
			<point x="192" y="57"/>
			<point x="180" y="159"/>
			<point x="180" y="343" type="curve" smooth="yes"/>
			<point x="180" y="521"/>
			<point x="183" y="570"/>
			<point x="186" y="657" type="curve"/>
			<point x="156" y="620" type="line"/>
			<point x="256" y="620" type="line" smooth="yes"/>
			<point x="378" y="620"/>
			<point x="432" y="572"/>
			<point x="432" y="463" type="curve" smooth="yes"/>
			<point x="432" y="353"/>
			<point x="376" y="305"/>
			<point x="247" y="305" type="curve" smooth="yes"/>
			<point x="173" y="305" type="line"/>
			<point x="173" y="225" type="line"/>
			<point x="252" y="225" type="line" smooth="yes"/>
			<point x="427" y="225"/>
			<point x="525" y="310"/>
			<point x="525" y="461" type="curve" smooth="yes"/>
			<point x="525" y="618"/>
			<point x="429" y="705"/>
			<point x="256" y="705" type="curve" smooth="yes"/>
			<point x="85" y="705" type="line"/>
			<point x="80" y="695" type="line"/>
			<point x="83" y="642"/>
			<point x="90" y="519"/>
			<point x="90" y="343" type="curve" smooth="yes"/>
			<point x="90" y="159"/>
			<point x="83" y="66"/>
			<point x="80" y="10" type="curve"/>
		</contour>
	</outline>
</glyph>
<glyph name="U" format="2">
	<advance width="650"/>
	<unicode hex="0055"/>
	<anchor x="410" y="3" name="ogonek"/>
	<anchor x="332" y="700" name="top"/>
	<anchor x="648" y="700" name="topright"/>
	<anchor x="332" y="0" name="bottom"/>
	<outline>
		<contour>
			<point x="80" y="96"/>
			<point x="181" y="-10"/>
			<point x="324" y="-10" type="curve" smooth="yes"/>
			<point x="467" y="-10"/>
			<point x="568" y="96"/>
			<point x="570" y="276" type="curve" smooth="yes"/>
			<point x="571" y="433"/>
			<point x="574" y="561"/>
			<point x="580" y="690" type="curve"/>
			<point x="571" y="700" type="line"/>
			<point x="490" y="700" type="line"/>
			<point x="481" y="691" type="line"/>
			<point x="487" y="557"/>
			<point x="488" y="422"/>
			<point x="488" y="257" type="curve" smooth="yes"/>
			<point x="488" y="129"/>
			<point x="437" y="80"/>
			<point x="334" y="80" type="curve" smooth="yes"/>
			<point x="230" y="80"/>
			<point x="179" y="132"/>
			<point x="179" y="266" type="curve" smooth="yes"/>
			<point x="179" y="444"/>
			<point x="181" y="561"/>
			<point x="186" y="691" type="curve"/>
			<point x="177" y="700" type="line"/>
			<point x="79" y="700" type="line"/>
			<point x="70" y="690" type="line"/>
			<point x="75" y="562"/>
			<point x="80" y="434"/>
			<point x="80" y="276" type="curve" smooth="yes"/>
		</contour>
	</outline>
</glyph>
<glyph name="V" format="2">
	<advance width="586"/>
	<unicode hex="0056"/>
	<outline>
		<contour>
			<point x="236" y="0" type="line"/>
			<point x="354" y="0" type="line"/>
			<point x="360" y="10" type="line"/>
			<point x="418" y="205"/>
			<point x="501" y="480"/>
			<point x="571" y="690" type="curve"/>
			<point x="566" y="700" type="line"/>
			<point x="474" y="700" type="line"/>
			<point x="468" y="690" type="line"/>
			<point x="424" y="503"/>
			<point x="349" y="235"/>
			<point x="291" y="40" type="curve"/>
			<point x="323" y="40" type="line"/>
			<point x="252" y="259"/>
			<point x="173" y="500"/>
			<point x="126" y="692" type="curve"/>
			<point x="119" y="700" type="line"/>
			<point x="21" y="700" type="line"/>
			<point x="15" y="690" type="line"/>
			<point x="91" y="476"/>
			<point x="163" y="246"/>
			<point x="230" y="10" type="curve"/>
		</contour>
	</outline>
</glyph>
<glyph name="W" format="2">
	<advance width="873"/>
	<unicode hex="0057"/>
	<anchor x="469" y="700" name="top"/>
	<anchor x="469" y="0" name="bottom"/>
	<outline>
		<contour>
			<point x="852" y="700" type="line"/>
			<point x="759" y="700" type="line"/>
			<point x="755" y="690" type="line"/>
			<point x="725" y="495"/>
			<point x="673" y="289"/>
			<point x="618" y="50" type="curve"/>
			<point x="649" y="50" type="line"/>
			<point x="608" y="188"/>
			<point x="540" y="451"/>
			<point x="502" y="620" type="curve"/>
			<point x="495" y="630" type="line"/>
			<point x="395" y="630" type="line"/>
			<point x="388" y="621" type="line"/>
			<point x="356" y="462"/>
			<point x="294" y="222"/>
			<point x="252" y="50" type="curve"/>
			<point x="280" y="50" type="line"/>
			<point x="233" y="254"/>
			<point x="174" y="465"/>
			<point x="125" y="690" type="curve"/>
			<point x="118" y="700" type="line"/>
			<point x="20" y="700" type="line"/>
			<point x="15" y="690" type="line"/>
			<point x="61" y="531"/>
			<point x="136" y="265"/>
			<point x="185" y="6" type="curve"/>
			<point x="199" y="0" type="line"/>
			<point x="319" y="0" type="line"/>
			<point x="325" y="8" type="line"/>
			<point x="375" y="224"/>
			<point x="410" y="381"/>
			<point x="461" y="597" type="curve"/>
			<point x="413" y="597" type="line"/>
			<point x="464" y="394"/>
			<point x="500" y="223"/>
			<point x="551" y="7" type="curve"/>
			<point x="557" y="0" type="line"/>
			<point x="686" y="0" type="line"/>
			<point x="694" y="6" type="line"/>
			<point x="742" y="228"/>
			<point x="804" y="488"/>
			<point x="858" y="690" type="curve"/>
		</contour>
	</outline>
</glyph>
<glyph name="X" format="2">
	<advance width="548"/>
	<unicode hex="0058"/>
	<outline>
		<contour>
			<point x="419" y="0" type="line"/>
			<point x="521" y="0" type="line"/>
			<point x="528" y="15" type="line"/>
			<point x="387" y="243"/>
			<point x="218" y="527"/>
			<point x="151" y="686" type="curve"/>
			<point x="140" y="700" type="line"/>
			<point x="35" y="700" type="line"/>
			<point x="29" y="686" type="line"/>
			<point x="149" y="501"/>
			<point x="317" y="198"/>
			<point x="408" y="14" type="curve"/>
		</contour>
		<contour>
			<point x="16" y="0" type="line"/>
			<point x="120" y="0" type="line"/>
			<point x="127" y="18" type="line"/>
			<point x="190" y="149"/>
			<point x="224" y="207"/>
			<point x="302" y="353" type="curve"/>
			<point x="227" y="383" type="line"/>
			<point x="132" y="212"/>
			<point x="99" y="163"/>
			<point x="10" y="15" type="curve"/>
		</contour>
		<contour>
			<point x="313" y="350" type="line"/>
			<point x="373" y="463"/>
			<point x="440" y="570"/>
			<point x="509" y="686" type="curve"/>
			<point x="503" y="700" type="line"/>
			<point x="394" y="700" type="line"/>
			<point x="383" y="686" type="line"/>
			<point x="334" y="568"/>
			<point x="299" y="485"/>
			<point x="246" y="391" type="curve"/>
		</contour>
	</outline>
</glyph>
<glyph name="Y" format="2">
	<advance width="483"/>
	<unicode hex="0059"/>
	<anchor x="250" y="700" name="top"/>
	<anchor x="250" y="0" name="bottom"/>
	<anchor x="20" y="700" name="topleft"/>
	<outline>
		<contour>
			<point x="208" y="0" type="line"/>
			<point x="300" y="0" type="line"/>
			<point x="305" y="5" type="line"/>
			<point x="300" y="70"/>
			<point x="299" y="136"/>
			<point x="299" y="216" type="curve" smooth="yes"/>
			<point x="299" y="304" type="line"/>
			<point x="209" y="304" type="line"/>
			<point x="209" y="216" type="line" smooth="yes"/>
			<point x="209" y="136"/>
			<point x="208" y="70"/>
			<point x="203" y="5" type="curve"/>
		</contour>
		<contour>
			<point x="298" y="264" type="line"/>
			<point x="356.53822" y="388.1414"/>
			<point x="458" y="588"/>
			<point x="508" y="690" type="curve"/>
			<point x="503" y="700" type="line"/>
			<point x="420" y="700" type="line"/>
			<point x="413" y="692" type="line"/>
			<point x="388" y="627"/>
			<point x="278.44948" y="395.94505"/>
			<point x="239" y="313" type="curve"/>
			<point x="289" y="313" type="line"/>
			<point x="243.41441" y="399.10612"/>
			<point x="123" y="649"/>
			<point x="107" y="690" type="curve"/>
			<point x="101" y="700" type="line"/>
			<point x="-1" y="700" type="line"/>
			<point x="-5" y="690" type="line"/>
			<point x="26" y="640"/>
			<point x="160.68911" y="393.19452"/>
			<point x="210" y="264" type="curve"/>
		</contour>
	</outline>
</glyph>
<glyph name="underscore" format="2">
	<advance width="500"/>
	<unicode hex="005F"/>
	<outline>
		<contour>
			<point x="457" y="0" type="line"/>
			<point x="396" y="2"/>
			<point x="321" y="2"/>
			<point x="247" y="2" type="curve" smooth="yes"/>
			<point x="173" y="2"/>
			<point x="99" y="2"/>
			<point x="37" y="0" type="curve"/>
			<point x="30" y="6" type="line"/>
			<point x="30" y="73" type="line"/>
			<point x="38" y="78" type="line"/>
			<point x="100" y="77"/>
			<point x="174" y="76"/>
			<point x="248" y="76" type="curve" smooth="yes"/>
			<point x="322" y="76"/>
			<point x="396" y="77"/>
			<point x="457" y="78" type="curve"/>
			<point x="467" y="73" type="line"/>
			<point x="467" y="5" type="line"/>
		</contour>
	</outline>
</glyph>
<glyph name="a" format="2">
	<advance width="532"/>
	<unicode hex="0061"/>
	<guideline x="96" y="383" angle="0"/>
	<anchor x="445" y="10" name="ogonek"/>
	<anchor x="266" y="0" name="bottom"/>
	<anchor x="258" y="510" name="top"/>
	<outline>
		<contour>
			<point x="418" y="-9" type="curve" smooth="yes"/>
			<point x="436" y="-9"/>
			<point x="468" y="-4"/>
			<point x="488" y="0" type="curve"/>
			<point x="492" y="65" type="line"/>
			<point x="391" y="85" type="line"/>
			<point x="440" y="37" type="line"/>
			<point x="440" y="355" type="line" smooth="yes"/>
			<point x="440" y="480"/>
			<point x="347" y="520"/>
			<point x="254" y="520" type="curve" smooth="yes"/>
			<point x="177" y="520"/>
			<point x="107" y="488"/>
			<point x="76" y="463" type="curve"/>
			<point x="74" y="455" type="line"/>
			<point x="102" y="407" type="line"/>
			<point x="108" y="404" type="line"/>
			<point x="160" y="431"/>
			<point x="196" y="446"/>
			<point x="245" y="446" type="curve" smooth="yes"/>
			<point x="308" y="446"/>
			<point x="355" y="412"/>
			<point x="355" y="344" type="curve" smooth="yes"/>
			<point x="355" y="57" type="line" smooth="yes"/>
			<point x="355" y="12"/>
			<point x="368" y="-9"/>
		</contour>
		<contour>
			<point x="206" y="-10" type="curve" smooth="yes"/>
			<point x="292" y="-10"/>
			<point x="349" y="41"/>
			<point x="366" y="106" type="curve"/>
			<point x="331" y="70" type="line"/>
			<point x="373" y="70" type="line"/>
			<point x="355" y="201" type="line"/>
			<point x="355" y="114"/>
			<point x="315" y="65"/>
			<point x="229" y="65" type="curve" smooth="yes"/>
			<point x="178" y="65"/>
			<point x="140" y="95"/>
			<point x="140" y="149" type="curve" smooth="yes"/>
			<point x="140" y="196"/>
			<point x="160" y="228"/>
			<point x="235" y="228" type="curve" smooth="yes"/>
			<point x="368" y="228" type="line"/>
			<point x="368" y="293" type="line"/>
			<point x="216" y="293" type="line" smooth="yes"/>
			<point x="116" y="293"/>
			<point x="50" y="235"/>
			<point x="50" y="143" type="curve" smooth="yes"/>
			<point x="50" y="53"/>
			<point x="115" y="-10"/>
		</contour>
	</outline>
</glyph>
<glyph name="e" format="2">
	<advance width="491"/>
	<unicode hex="0065"/>
	<anchor x="362" y="16" name="ogonek"/>
	<anchor x="246" y="0" name="bottom"/>
	<anchor x="264" y="510" name="top"/>
	<outline>
		<contour>
			<point x="261" y="-10" type="curve" smooth="yes"/>
			<point x="331.19653" y="-10"/>
			<point x="384" y="12"/>
			<point x="437" y="40" type="curve"/>
			<point x="438" y="47" type="line"/>
			<point x="415" y="95" type="line"/>
			<point x="408" y="96" type="line"/>
			<point x="358" y="79"/>
			<point x="322" y="65"/>
			<point x="275" y="65" type="curve" smooth="yes"/>
			<point x="179" y="65"/>
			<point x="140" y="111"/>
			<point x="140" y="253" type="curve" smooth="yes"/>
			<point x="140" y="395"/>
			<point x="180" y="445"/>
			<point x="255" y="445" type="curve" smooth="yes"/>
			<point x="323" y="445"/>
			<point x="360" y="409"/>
			<point x="360" y="288" type="curve"/>
			<point x="370" y="299" type="line"/>
			<point x="103" y="299" type="line"/>
			<point x="108" y="228" type="line"/>
			<point x="164" y="228"/>
			<point x="219" y="228"/>
			<point x="272" y="228" type="curve" smooth="yes"/>
			<point x="324" y="228"/>
			<point x="379" y="228"/>
			<point x="435" y="228" type="curve"/>
			<point x="446" y="241" type="line"/>
			<point x="450" y="304" type="line" smooth="yes"/>
			<point x="457" y="421"/>
			<point x="397" y="520"/>
			<point x="264" y="520" type="curve" smooth="yes"/>
			<point x="121" y="520"/>
			<point x="50" y="429"/>
			<point x="50" y="253" type="curve" smooth="yes"/>
			<point x="50" y="77"/>
			<point x="121" y="-10"/>
		</contour>
	</outline>
</glyph>
<glyph name="f" format="2">
	<advance width="328"/>
	<unicode hex="0066"/>
	<guideline x="231" y="686" angle="90"/>
	<outline>
		<contour>
			<point x="112" y="0" type="line"/>
			<point x="199" y="0" type="line"/>
			<point x="209" y="10" type="line"/>
			<point x="203.41561" y="77.01269"/>
			<point x="199" y="150.82353"/>
			<point x="199" y="295" type="curve" smooth="yes"/>
			<point x="199" y="594" type="line" smooth="yes"/>
			<point x="199" y="669"/>
			<point x="215" y="705"/>
			<point x="274" y="705" type="curve" smooth="yes"/>
			<point x="302" y="705"/>
			<point x="328" y="698"/>
			<point x="351" y="689" type="curve"/>
			<point x="356" y="692" type="line"/>
			<point x="380" y="750" type="line"/>
			<point x="378" y="754" type="line"/>
			<point x="359" y="765"/>
			<point x="320.25" y="780"/>
			<point x="273" y="780" type="curve" smooth="yes"/>
			<point x="158" y="780"/>
			<point x="114" y="703"/>
			<point x="114" y="612" type="curve" smooth="yes"/>
			<point x="114" y="295" type="line" smooth="yes"/>
			<point x="114" y="148.58824"/>
			<point x="108.4684" y="73.67474"/>
			<point x="104" y="10" type="curve"/>
		</contour>
		<contour>
			<point x="42" y="435" type="line"/>
			<point x="92" y="436"/>
			<point x="132" y="437"/>
			<point x="180" y="437" type="curve" smooth="yes"/>
			<point x="214" y="437"/>
			<point x="261" y="436"/>
			<point x="321" y="435" type="curve"/>
			<point x="328" y="442" type="line"/>
			<point x="328" y="505" type="line"/>
			<point x="321" y="510" type="line"/>
			<point x="42" y="510" type="line"/>
			<point x="35" y="503" type="line"/>
			<point x="35" y="442" type="line"/>
		</contour>
	</outline>
</glyph>
<glyph name="g" format="2">
	<advance width="480"/>
	<unicode hex="0067"/>
	<guideline x="25" y="-85" angle="0"/>
	<outline>
		<contour>
			<point x="245" y="-230" type="curve"/>
			<point x="364" y="-230"/>
			<point x="454" y="-154"/>
			<point x="454" y="-74" type="curve" smooth="yes"/>
			<point x="454" y="10"/>
			<point x="403" y="51"/>
			<point x="285" y="60" type="curve" smooth="yes"/>
			<point x="210" y="66"/>
			<point x="172" y="76"/>
			<point x="172" y="99" type="curve" smooth="yes"/>
			<point x="172" y="114"/>
			<point x="183" y="127"/>
			<point x="194" y="138" type="curve"/>
			<point x="144" y="159" type="line"/>
			<point x="110" y="141"/>
			<point x="82" y="105"/>
			<point x="82" y="74" type="curve" smooth="yes"/>
			<point x="82" y="16"/>
			<point x="147" y="-5"/>
			<point x="263" y="-20" type="curve" smooth="yes"/>
			<point x="354" y="-32"/>
			<point x="379" y="-44"/>
			<point x="379" y="-81" type="curve" smooth="yes"/>
			<point x="379" y="-122"/>
			<point x="340" y="-162"/>
			<point x="257" y="-162" type="curve" smooth="yes"/>
			<point x="184" y="-162"/>
			<point x="133" y="-125"/>
			<point x="133" y="-77" type="curve"/>
			<point x="133" y="-37"/>
			<point x="151" y="-14"/>
			<point x="172" y="2" type="curve"/>
			<point x="132" y="22" type="line"/>
			<point x="100" y="5"/>
			<point x="50" y="-29"/>
			<point x="50" y="-87" type="curve"/>
			<point x="50" y="-173"/>
			<point x="131" y="-230"/>
		</contour>
		<contour>
			<point x="239" y="128" type="curve" smooth="yes"/>
			<point x="359" y="128"/>
			<point x="435" y="205"/>
			<point x="435" y="327" type="curve" smooth="yes"/>
			<point x="435" y="446"/>
			<point x="359" y="520"/>
			<point x="241" y="520" type="curve"/>
			<point x="126" y="520"/>
			<point x="55" y="446"/>
			<point x="55" y="327" type="curve" smooth="yes"/>
			<point x="55" y="205"/>
			<point x="126" y="128"/>
		</contour>
		<contour>
			<point x="245" y="203" type="curve" smooth="yes"/>
			<point x="175" y="203"/>
			<point x="145" y="242"/>
			<point x="145" y="330" type="curve" smooth="yes"/>
			<point x="145" y="410"/>
			<point x="175" y="445"/>
			<point x="245" y="445" type="curve" smooth="yes"/>
			<point x="315" y="445"/>
			<point x="345" y="410"/>
			<point x="345" y="330" type="curve" smooth="yes"/>
			<point x="345" y="242"/>
			<point x="315" y="203"/>
		</contour>
		<contour>
			<point x="348" y="493" type="line"/>
			<point x="348" y="557" type="line"/>
			<point x="337" y="535" type="line"/>
			<point x="457" y="541" type="line"/>
			<point x="460" y="545" type="line"/>
			<point x="459" y="619" type="line"/>
			<point x="455" y="622" type="line"/>
			<point x="341" y="622"/>
			<point x="290" y="599"/>
			<point x="290" y="543" type="curve" smooth="yes"/>
			<point x="290" y="531"/>
			<point x="291" y="518"/>
			<point x="294" y="504" type="curve"/>
		</contour>
	</outline>
</glyph>
<glyph name="h" format="2">
	<advance width="586"/>
	<unicode hex="0068"/>
	<outline>
		<contour>
			<point x="461" y="-10" type="curve" smooth="yes"/>
			<point x="484" y="-10"/>
			<point x="515" y="-5"/>
			<point x="542" y="-1" type="curve"/>
			<point x="546" y="64" type="line"/>
			<point x="452" y="83" type="line"/>
			<point x="503" y="32" type="line"/>
			<point x="494.64093" y="108.16045"/>
			<point x="494" y="162"/>
			<point x="494" y="341" type="curve" smooth="yes"/>
			<point x="494" y="452"/>
			<point x="446" y="520"/>
			<point x="336" y="520" type="curve"/>
			<point x="234" y="520"/>
			<point x="182.97584" y="453.91301"/>
			<point x="168" y="400" type="curve"/>
			<point x="208" y="449" type="line"/>
			<point x="174" y="449" type="line"/>
			<point x="184" y="413" type="line"/>
			<point x="184" y="718" type="line" smooth="yes"/>
			<point x="184" y="759"/>
			<point x="170" y="780"/>
			<point x="129" y="780" type="curve" smooth="yes"/>
			<point x="102.41573" y="780"/>
			<point x="67.61618" y="772.14873"/>
			<point x="38" y="765" type="curve"/>
			<point x="45" y="700" type="line"/>
			<point x="108" y="703" type="line"/>
			<point x="89" y="732" type="line"/>
			<point x="95" y="647"/>
			<point x="99" y="483"/>
			<point x="99" y="372" type="curve" smooth="yes"/>
			<point x="99" y="268"/>
			<point x="99" y="113"/>
			<point x="89" y="10" type="curve"/>
			<point x="94" y="0" type="line"/>
			<point x="189" y="0" type="line"/>
			<point x="194" y="10" type="line"/>
			<point x="187" y="70"/>
			<point x="184" y="179"/>
			<point x="184" y="251" type="curve" smooth="yes"/>
			<point x="184" y="379"/>
			<point x="216" y="440"/>
			<point x="304" y="440" type="curve" smooth="yes"/>
			<point x="386" y="440"/>
			<point x="409" y="379"/>
			<point x="409" y="275" type="curve" smooth="yes"/>
			<point x="409" y="215"/>
			<point x="405" y="125"/>
			<point x="405" y="65" type="curve" smooth="yes"/>
			<point x="405" y="13"/>
			<point x="429" y="-10"/>
		</contour>
	</outline>
</glyph>
<glyph name="j" format="2">
	<advance width="263"/>
	<unicode hex="006A"/>
	<outline>
		<contour>
			<point x="150" y="-138"/>
			<point x="189" y="-87"/>
			<point x="189" y="101" type="curve" smooth="yes"/>
			<point x="189" y="245" type="line" smooth="yes"/>
			<point x="189" y="308"/>
			<point x="192" y="394"/>
			<point x="193" y="457" type="curve" smooth="yes"/>
			<point x="193" y="498"/>
			<point x="179" y="519"/>
			<point x="137" y="519" type="curve" smooth="yes"/>
			<point x="108" y="519"/>
			<point x="59" y="509"/>
			<point x="33" y="503" type="curve"/>
			<point x="40" y="437" type="line"/>
			<point x="144" y="444" type="line"/>
			<point x="98" y="462" type="line"/>
			<point x="100" y="416"/>
			<point x="104" y="306"/>
			<point x="104" y="245" type="curve" smooth="yes"/>
			<point x="104" y="149" type="line" smooth="yes"/>
			<point x="104" y="-66"/>
			<point x="73" y="-88"/>
			<point x="16" y="-180" type="curve"/>
			<point x="15" y="-185" type="line"/>
			<point x="56" y="-220" type="line"/>
			<point x="61" y="-220" type="line"/>
		</contour>
		<component base="dotaccentcomb" xOffset="57"/>
	</outline>
</glyph>
<glyph name="o" format="2">
	<advance width="513"/>
	<unicode hex="006F"/>
	<guideline x="-28" y="461" angle="0"/>
	<anchor x="256" y="510" name="top"/>
	<anchor x="257" y="0" name="bottom"/>
	<outline>
		<contour>
			<point x="256" y="-10" type="curve" smooth="yes"/>
			<point x="392" y="-10"/>
			<point x="463" y="81"/>
			<point x="463" y="255" type="curve" smooth="yes"/>
			<point x="463" y="429"/>
			<point x="392" y="520"/>
			<point x="256" y="520" type="curve" smooth="yes"/>
			<point x="121" y="520"/>
			<point x="50" y="429"/>
			<point x="50" y="255" type="curve" smooth="yes"/>
			<point x="50" y="81"/>
			<point x="121" y="-10"/>
		</contour>
		<contour>
			<point x="256" y="65" type="curve" smooth="yes"/>
			<point x="177" y="65"/>
			<point x="140" y="127"/>
			<point x="140" y="255" type="curve" smooth="yes"/>
			<point x="140" y="383"/>
			<point x="177" y="445"/>
			<point x="256" y="445" type="curve" smooth="yes"/>
			<point x="336" y="445"/>
			<point x="373" y="383"/>
			<point x="373" y="255" type="curve" smooth="yes"/>
			<point x="373" y="127"/>
			<point x="336" y="65"/>
		</contour>
	</outline>
</glyph>
<glyph name="q" format="2">
	<advance width="548"/>
	<unicode hex="0071"/>
	<outline>
		<contour>
			<point x="420" y="-225" type="curve" smooth="yes"/>
			<point x="449" y="-225"/>
			<point x="481" y="-218"/>
			<point x="506" y="-212" type="curve"/>
			<point x="508" y="-147" type="line"/>
			<point x="414" y="-138" type="line"/>
			<point x="458" y="-171" type="line"/>
			<point x="453" y="-49"/>
			<point x="451" y="30"/>
			<point x="451" y="165" type="curve" smooth="yes"/>
			<point x="451" y="310"/>
			<point x="457" y="418"/>
			<point x="463" y="500" type="curve"/>
			<point x="458" y="510" type="line"/>
			<point x="393" y="510" type="line"/>
			<point x="387" y="504" type="line"/>
			<point x="366" y="432" type="line"/>
			<point x="366" y="253" type="line" smooth="yes"/>
			<point x="366" y="141"/>
			<point x="326" y="70"/>
			<point x="251" y="70" type="curve" smooth="yes"/>
			<point x="177" y="70"/>
			<point x="145" y="132"/>
			<point x="145" y="244" type="curve" smooth="yes"/>
			<point x="145" y="269" type="line" smooth="yes"/>
			<point x="145" y="376"/>
			<point x="179" y="432"/>
			<point x="233" y="432" type="curve" smooth="yes"/>
			<point x="288" y="432"/>
			<point x="347" y="401"/>
			<point x="383" y="380" type="curve"/>
			<point x="399" y="460" type="line"/>
			<point x="380" y="472"/>
			<point x="316" y="520"/>
			<point x="233" y="520" type="curve" smooth="yes"/>
			<point x="128" y="520"/>
			<point x="50" y="423"/>
			<point x="50" y="266" type="curve" smooth="yes"/>
			<point x="50" y="241" type="line" smooth="yes"/>
			<point x="50" y="76"/>
			<point x="118" y="-10"/>
			<point x="230" y="-10" type="curve" smooth="yes"/>
			<point x="321" y="-10"/>
			<point x="371" y="64"/>
			<point x="387" y="109" type="curve"/>
			<point x="366" y="129" type="line"/>
			<point x="366" y="-26"/>
			<point x="360" y="-103"/>
			<point x="360" y="-151" type="curve" smooth="yes"/>
			<point x="360" y="-203"/>
			<point x="379" y="-225"/>
		</contour>
	</outline>
</glyph>
<glyph name="r" format="2">
	<advance width="396"/>
	<unicode hex="0072"/>
	<anchor x="202" y="510" name="top"/>
	<anchor x="171" y="3" name="bottom"/>
	<outline>
		<contour>
			<point x="94" y="0" type="line"/>
			<point x="189" y="0" type="line"/>
			<point x="194" y="10" type="line"/>
			<point x="187" y="74"/>
			<point x="184" y="213"/>
			<point x="184" y="286" type="curve" smooth="yes"/>
			<point x="184" y="326"/>
			<point x="184" y="349"/>
			<point x="184" y="393" type="curve" smooth="yes"/>
			<point x="184" y="425"/>
			<point x="184" y="449"/>
			<point x="184" y="458" type="curve"/>
			<point x="184" y="497"/>
			<point x="171" y="520"/>
			<point x="133" y="520" type="curve" smooth="yes"/>
			<point x="105" y="520"/>
			<point x="72" y="513"/>
			<point x="40" y="505" type="curve"/>
			<point x="47" y="440" type="line"/>
			<point x="108" y="443" type="line"/>
			<point x="89" y="472" type="line"/>
			<point x="96" y="423"/>
			<point x="99" y="334"/>
			<point x="99" y="275" type="curve" smooth="yes"/>
			<point x="99" y="202"/>
			<point x="97" y="79"/>
			<point x="89" y="10" type="curve"/>
		</contour>
		<contour>
			<point x="184" y="278" type="line"/>
			<point x="184" y="376"/>
			<point x="229" y="433"/>
			<point x="305" y="433" type="curve" smooth="yes"/>
			<point x="321" y="433"/>
			<point x="339" y="431"/>
			<point x="357" y="426" type="curve"/>
			<point x="365" y="430" type="line"/>
			<point x="383" y="500" type="line"/>
			<point x="378" y="509" type="line"/>
			<point x="361" y="517"/>
			<point x="336.56604" y="520"/>
			<point x="317" y="520" type="curve" smooth="yes"/>
			<point x="248.28571" y="520"/>
			<point x="193" y="477"/>
			<point x="169" y="403" type="curve"/>
			<point x="234" y="449" type="line"/>
			<point x="179" y="449" type="line"/>
		</contour>
	</outline>
</glyph>
<glyph name="u" format="2">
	<advance width="565"/>
	<unicode hex="0075"/>
	<anchor x="482" y="9" name="ogonek"/>
	<anchor x="273" y="510" name="top"/>
	<anchor x="550" y="510" name="topright"/>
	<anchor x="283" y="0" name="bottom"/>
	<outline>
		<contour>
			<point x="242" y="-10" type="curve" smooth="yes"/>
			<point x="344" y="-10"/>
			<point x="383" y="45"/>
			<point x="402" y="99" type="curve"/>
			<point x="363" y="61" type="line"/>
			<point x="401" y="61" type="line"/>
			<point x="388" y="101" type="line"/>
			<point x="388" y="57" type="line" smooth="yes"/>
			<point x="388" y="13"/>
			<point x="403" y="-10"/>
			<point x="448" y="-10" type="curve" smooth="yes"/>
			<point x="469" y="-10"/>
			<point x="497" y="-5"/>
			<point x="521" y="1" type="curve"/>
			<point x="525" y="65" type="line"/>
			<point x="443" y="76" type="line"/>
			<point x="480" y="39" type="line"/>
			<point x="479" y="46"/>
			<point x="472" y="166"/>
			<point x="472" y="235" type="curve" smooth="yes"/>
			<point x="472" y="312"/>
			<point x="474" y="433"/>
			<point x="482" y="500" type="curve"/>
			<point x="477" y="510" type="line"/>
			<point x="382" y="510" type="line"/>
			<point x="377" y="500" type="line"/>
			<point x="384" y="440"/>
			<point x="387" y="331"/>
			<point x="387" y="259" type="curve" smooth="yes"/>
			<point x="387" y="137"/>
			<point x="359" y="70"/>
			<point x="278" y="70" type="curve" smooth="yes"/>
			<point x="200" y="70"/>
			<point x="177" y="117"/>
			<point x="177" y="235" type="curve" smooth="yes"/>
			<point x="177" y="295"/>
			<point x="181" y="385"/>
			<point x="181" y="445" type="curve" smooth="yes"/>
			<point x="181" y="497"/>
			<point x="157" y="520"/>
			<point x="125" y="520" type="curve" smooth="yes"/>
			<point x="102" y="520"/>
			<point x="71" y="515"/>
			<point x="44" y="511" type="curve"/>
			<point x="40" y="446" type="line"/>
			<point x="134" y="427" type="line"/>
			<point x="92" y="478" type="line"/>
			<point x="92" y="145" type="line" smooth="yes"/>
			<point x="92" y="40"/>
			<point x="149" y="-10"/>
		</contour>
	</outline>
</glyph>
<glyph name="w" format="2">
	<advance width="762"/>
	<unicode hex="0077"/>
	<anchor x="381" y="510" name="top"/>
	<anchor x="381" y="0" name="bottom"/>
	<outline>
		<contour>
			<point x="162" y="0" type="line"/>
			<point x="281" y="0" type="line"/>
			<point x="290" y="10" type="line"/>
			<point x="320" y="155"/>
			<point x="363" y="316"/>
			<point x="400" y="469" type="curve"/>
			<point x="372" y="469" type="line"/>
			<point x="411" y="316"/>
			<point x="466" y="144"/>
			<point x="495" y="10" type="curve"/>
			<point x="500" y="0" type="line"/>
			<point x="618" y="0" type="line"/>
			<point x="625" y="10" type="line"/>
			<point x="671" y="174"/>
			<point x="701" y="337"/>
			<point x="747" y="501" type="curve"/>
			<point x="742" y="510" type="line"/>
			<point x="666" y="510" type="line"/>
			<point x="660" y="501" type="line"/>
			<point x="640" y="410"/>
			<point x="589" y="155"/>
			<point x="557" y="50" type="curve"/>
			<point x="573" y="50" type="line"/>
			<point x="552" y="109"/>
			<point x="471" y="419"/>
			<point x="452" y="501" type="curve"/>
			<point x="444" y="510" type="line"/>
			<point x="332" y="510" type="line"/>
			<point x="325" y="503" type="line"/>
			<point x="304" y="401"/>
			<point x="231" y="93"/>
			<point x="216" y="50" type="curve"/>
			<point x="232" y="50" type="line"/>
			<point x="186" y="202"/>
			<point x="151" y="351"/>
			<point x="117" y="501" type="curve"/>
			<point x="111" y="510" type="line"/>
			<point x="20" y="510" type="line"/>
			<point x="15" y="501" type="line"/>
			<point x="69" y="337"/>
			<point x="110" y="174"/>
			<point x="155" y="10" type="curve"/>
		</contour>
	</outline>
</glyph>
<glyph name="x" format="2">
	<advance width="470"/>
	<unicode hex="0078"/>
	<outline>
		<contour>
			<point x="348" y="0" type="line"/>
			<point x="455" y="0" type="line"/>
			<point x="460" y="11" type="line"/>
			<point x="333" y="168"/>
			<point x="194" y="384"/>
			<point x="140" y="500" type="curve"/>
			<point x="130" y="510" type="line"/>
			<point x="23" y="510" type="line"/>
			<point x="18" y="500" type="line"/>
			<point x="119" y="373"/>
			<point x="261" y="144"/>
			<point x="338" y="10" type="curve"/>
		</contour>
		<contour>
			<point x="15" y="0" type="line"/>
			<point x="110" y="0" type="line"/>
			<point x="120" y="10" type="line"/>
			<point x="169.94093" y="104.88776"/>
			<point x="192" y="145"/>
			<point x="259" y="245" type="curve"/>
			<point x="194" y="290" type="line"/>
			<point x="113" y="156"/>
			<point x="84.94458" y="105.4107"/>
			<point x="10" y="11" type="curve"/>
		</contour>
		<contour>
			<point x="261" y="225" type="line"/>
			<point x="313" y="318"/>
			<point x="371.05265" y="405.44363"/>
			<point x="440" y="500" type="curve"/>
			<point x="435" y="510" type="line"/>
			<point x="338" y="510" type="line"/>
			<point x="330" y="500" type="line"/>
			<point x="285" y="405"/>
			<point x="245" y="334"/>
			<point x="190" y="259" type="curve"/>
		</contour>
	</outline>
</glyph>
<glyph name="y" format="2">
	<advance width="451"/>
	<unicode hex="0079"/>
	<anchor x="226" y="510" name="top"/>
	<anchor x="226" y="0" name="bottom"/>
	<outline>
		<contour>
			<point x="110" y="-228" type="curve" smooth="yes"/>
			<point x="190" y="-228"/>
			<point x="252" y="-187"/>
			<point x="307" y="9" type="curve" smooth="yes"/>
			<point x="446" y="500" type="line"/>
			<point x="441" y="510" type="line"/>
			<point x="356" y="510" type="line"/>
			<point x="349" y="502" type="line"/>
			<point x="310" y="337"/>
			<point x="281" y="207"/>
			<point x="229" y="34" type="curve"/>
			<point x="260" y="34" type="line"/>
			<point x="199" y="204"/>
			<point x="142.03736" y="391.8559"/>
			<point x="114" y="500" type="curve"/>
			<point x="108" y="510" type="line"/>
			<point x="11" y="510" type="line"/>
			<point x="7" y="500" type="line"/>
			<point x="51" y="374"/>
			<point x="118" y="173"/>
			<point x="166" y="10" type="curve"/>
			<point x="174" y="0" type="line"/>
			<point x="267" y="0" type="line"/>
			<point x="228" y="20" type="line"/>
			<point x="199.10612" y="-91.96379"/>
			<point x="154" y="-151"/>
			<point x="112" y="-151" type="curve"/>
			<point x="81.11765" y="-151"/>
			<point x="63" y="-145"/>
			<point x="42" y="-139" type="curve"/>
			<point x="37" y="-142" type="line"/>
			<point x="17" y="-206" type="line"/>
			<point x="19" y="-210" type="line"/>
			<point x="35" y="-215"/>
			<point x="66" y="-228"/>
		</contour>
	</outline>
</glyph>
<glyph name="bar" format="2">
	<advance width="257"/>
	<unicode hex="007C"/>
	<outline>
		<contour>
			<point x="87" y="278" type="curve" smooth="yes"/>
			<point x="87" y="221"/>
			<point x="83" y="-138"/>
			<point x="80" y="-211" type="curve"/>
			<point x="88" y="-220" type="line"/>
			<point x="169" y="-220" type="line"/>
			<point x="177" y="-211" type="line"/>
			<point x="174" y="-139"/>
			<point x="170" y="223"/>
			<point x="170" y="280" type="curve" smooth="yes"/>
			<point x="170" y="337"/>
			<point x="174" y="679"/>
			<point x="177" y="771" type="curve"/>
			<point x="169" y="780" type="line"/>
			<point x="88" y="780" type="line"/>
			<point x="80" y="771" type="line"/>
			<point x="83" y="678"/>
			<point x="87" y="335"/>
		</contour>
	</outline>
</glyph>
<glyph name="braceright" format="2">
	<advance width="370"/>
	<unicode hex="007D"/>
	<outline>
		<contour>
			<point x="320" y="344" type="line"/>
			<point x="244" y="381"/>
			<point x="226" y="417"/>
			<point x="228" y="551" type="curve" smooth="yes"/>
			<point x="231" y="695"/>
			<point x="208" y="771"/>
			<point x="48" y="771" type="curve"/>
			<point x="40" y="762" type="line"/>
			<point x="40" y="715" type="line"/>
			<point x="49" y="708" type="line"/>
			<point x="138" y="708"/>
			<point x="146" y="663"/>
			<point x="146" y="551" type="curve" smooth="yes"/>
			<point x="146" y="422"/>
			<point x="158" y="319"/>
			<point x="263" y="319" type="curve"/>
			<point x="263" y="326" type="line"/>
			<point x="158" y="326"/>
			<point x="146" y="223"/>
			<point x="146" y="94" type="curve" smooth="yes"/>
			<point x="146" y="-18"/>
			<point x="138" y="-63"/>
			<point x="49" y="-63" type="curve"/>
			<point x="40" y="-70" type="line"/>
			<point x="40" y="-117" type="line"/>
			<point x="48" y="-126" type="line"/>
			<point x="208" y="-126"/>
			<point x="231" y="-50"/>
			<point x="228" y="94" type="curve" smooth="yes"/>
			<point x="226" y="228"/>
			<point x="244" y="264"/>
			<point x="320" y="301" type="curve"/>
		</contour>
	</outline>
</glyph>
<glyph name="exclamdown" format="2">
	<advance width="192"/>
	<unicode hex="00A1"/>
	<outline>
		<contour>
			<point x="135" y="355" type="line"/>
			<point x="64" y="355" type="line"/>
			<point x="42" y="-156" type="line"/>
			<point x="47" y="-166" type="line"/>
			<point x="151" y="-166" type="line"/>
			<point x="156" y="-156" type="line"/>
		</contour>
		<contour>
			<point x="40" y="518" type="curve" smooth="yes"/>
			<point x="40" y="547"/>
			<point x="77" y="580"/>
			<point x="101" y="580" type="curve" smooth="yes"/>
			<point x="125" y="580"/>
			<point x="162" y="547"/>
			<point x="162" y="518" type="curve" smooth="yes"/>
			<point x="162" y="489"/>
			<point x="125" y="456"/>
			<point x="101" y="456" type="curve" smooth="yes"/>
			<point x="77" y="456"/>
			<point x="40" y="489"/>
		</contour>
	</outline>
</glyph>
<glyph name="copyright" format="2">
	<advance width="644"/>
	<unicode hex="00A9"/>
	<outline>
		<contour>
			<point x="322" y="-10" type="curve" smooth="yes"/>
			<point x="495" y="-10"/>
			<point x="604" y="110"/>
			<point x="604" y="302" type="curve" smooth="yes"/>
			<point x="604" y="493"/>
			<point x="495" y="614"/>
			<point x="322" y="614" type="curve" smooth="yes"/>
			<point x="149" y="614"/>
			<point x="40" y="493"/>
			<point x="40" y="302" type="curve" smooth="yes"/>
			<point x="40" y="110"/>
			<point x="149" y="-10"/>
		</contour>
		<contour>
			<point x="322" y="55" type="curve" smooth="yes"/>
			<point x="184" y="55"/>
			<point x="110" y="137.6537"/>
			<point x="110" y="302" type="curve" smooth="yes"/>
			<point x="110" y="464.42412"/>
			<point x="184" y="549"/>
			<point x="322" y="549" type="curve" smooth="yes"/>
			<point x="460" y="549"/>
			<point x="534" y="464.42412"/>
			<point x="534" y="302" type="curve" smooth="yes"/>
			<point x="534" y="137.6537"/>
			<point x="460" y="55"/>
		</contour>
		<contour>
			<point x="401" y="396" type="curve"/>
			<point x="405" y="396" type="line"/>
			<point x="425" y="441" type="line"/>
			<point x="425" y="445" type="line"/>
			<point x="401" y="459"/>
			<point x="367.30769" y="473"/>
			<point x="325" y="473" type="curve" smooth="yes"/>
			<point x="232" y="473"/>
			<point x="188" y="415"/>
			<point x="188" y="301" type="curve" smooth="yes"/>
			<point x="188" y="184"/>
			<point x="233" y="131"/>
			<point x="318" y="131" type="curve" smooth="yes"/>
			<point x="363" y="131"/>
			<point x="401" y="146"/>
			<point x="432" y="164" type="curve"/>
			<point x="433" y="168" type="line"/>
			<point x="414" y="208" type="line"/>
			<point x="412" y="210" type="line"/>
			<point x="383" y="199"/>
			<point x="360" y="190"/>
			<point x="327" y="190" type="curve" smooth="yes"/>
			<point x="277" y="190"/>
			<point x="255" y="225"/>
			<point x="255" y="304" type="curve" smooth="yes"/>
			<point x="255" y="392"/>
			<point x="277" y="415"/>
			<point x="321" y="415" type="curve" smooth="yes"/>
			<point x="359" y="415"/>
			<point x="385" y="403"/>
		</contour>
	</outline>
</glyph>
<glyph name="registered" format="2">
	<advance width="435"/>
	<unicode hex="00AE"/>
	<outline>
		<contour>
			<point x="218" y="346" type="curve" smooth="yes"/>
			<point x="323" y="346"/>
			<point x="389" y="419"/>
			<point x="389" y="535" type="curve" smooth="yes"/>
			<point x="389" y="651"/>
			<point x="323" y="725"/>
			<point x="218" y="725" type="curve" smooth="yes"/>
			<point x="113" y="725"/>
			<point x="46" y="651"/>
			<point x="46" y="535" type="curve" smooth="yes"/>
			<point x="46" y="419"/>
			<point x="113" y="346"/>
		</contour>
		<contour>
			<point x="218" y="396" type="curve" smooth="yes"/>
			<point x="140" y="396"/>
			<point x="99" y="443.29861"/>
			<point x="99" y="535" type="curve" smooth="yes"/>
			<point x="99" y="626.70139"/>
			<point x="140" y="674"/>
			<point x="218" y="674" type="curve" smooth="yes"/>
			<point x="296" y="674"/>
			<point x="337" y="626.70139"/>
			<point x="337" y="535" type="curve" smooth="yes"/>
			<point x="337" y="443.29861"/>
			<point x="296" y="396"/>
		</contour>
		<contour>
			<point x="153" y="451" type="line"/>
			<point x="197" y="451" type="line"/>
			<point x="198" y="454" type="line"/>
			<point x="197" y="478"/>
			<point x="194" y="509"/>
			<point x="194" y="546" type="curve"/>
			<point x="194" y="581"/>
			<point x="194" y="594"/>
			<point x="195" y="618" type="curve"/>
			<point x="188" y="596" type="line"/>
			<point x="213" y="596" type="line" smooth="yes"/>
			<point x="231" y="596"/>
			<point x="241" y="589"/>
			<point x="241" y="576" type="curve" smooth="yes"/>
			<point x="241" y="561"/>
			<point x="231" y="552"/>
			<point x="214" y="552" type="curve" smooth="yes"/>
			<point x="193" y="552" type="line"/>
			<point x="193" y="517" type="line"/>
			<point x="218" y="517" type="line" smooth="yes"/>
			<point x="261" y="517"/>
			<point x="291" y="541"/>
			<point x="291" y="576" type="curve" smooth="yes"/>
			<point x="291" y="608"/>
			<point x="259" y="631"/>
			<point x="213" y="631" type="curve" smooth="yes"/>
			<point x="153" y="631" type="line"/>
			<point x="152" y="628" type="line"/>
			<point x="153" y="605"/>
			<point x="155" y="581"/>
			<point x="155" y="546" type="curve"/>
			<point x="155" y="505"/>
			<point x="153" y="480"/>
			<point x="152" y="454" type="curve"/>
		</contour>
		<contour>
			<point x="267" y="449" type="curve" smooth="yes"/>
			<point x="275" y="449"/>
			<point x="292" y="451"/>
			<point x="300" y="457" type="curve"/>
			<point x="293" y="487" type="line"/>
			<point x="271" y="486" type="line"/>
			<point x="281" y="469" type="line"/>
			<point x="250" y="539" type="line"/>
			<point x="213" y="533" type="line"/>
			<point x="232" y="479" type="line" smooth="yes"/>
			<point x="240" y="456"/>
			<point x="251" y="449"/>
		</contour>
	</outline>
</glyph>
<glyph name="degree" format="2">
	<advance width="274"/>
	<unicode hex="00B0"/>
	<outline>
		<contour>
			<point x="138" y="522" type="curve" smooth="yes"/>
			<point x="220" y="522"/>
			<point x="261" y="582"/>
			<point x="261" y="646" type="curve" smooth="yes"/>
			<point x="261" y="709"/>
			<point x="219" y="772"/>
			<point x="136" y="772" type="curve" smooth="yes"/>
			<point x="54" y="772"/>
			<point x="13" y="709"/>
			<point x="13" y="646" type="curve" smooth="yes"/>
			<point x="13" y="584"/>
			<point x="56" y="522"/>
		</contour>
		<contour>
			<point x="136" y="585" type="curve" smooth="yes"/>
			<point x="100" y="585"/>
			<point x="81" y="615"/>
			<point x="81" y="646" type="curve" smooth="yes"/>
			<point x="81" y="678"/>
			<point x="99" y="708"/>
			<point x="134" y="708" type="curve" smooth="yes"/>
			<point x="174" y="708"/>
			<point x="192" y="678"/>
			<point x="192" y="646" type="curve" smooth="yes"/>
			<point x="192" y="612"/>
			<point x="174" y="585"/>
		</contour>
	</outline>
</glyph>
<glyph name="Ccedilla" format="2">
	<advance width="598"/>
	<unicode hex="00C7"/>
	<outline>
		<contour>
			<point x="209" y="-204" type="line"/>
			<point x="247" y="-218"/>
			<point x="291" y="-223"/>
			<point x="322" y="-223" type="curve" smooth="yes"/>
			<point x="426" y="-223"/>
			<point x="478" y="-193"/>
			<point x="478" y="-132" type="curve" smooth="yes"/>
			<point x="478" y="-82"/>
			<point x="426" y="-55"/>
			<point x="322" y="-49" type="curve"/>
			<point x="356" y="-76" type="line"/>
			<point x="370" y="0" type="line"/>
			<point x="310" y="0" type="line"/>
			<point x="292" y="-89" type="line"/>
			<point x="295" y="-91" type="line"/>
			<point x="370" y="-98"/>
			<point x="403" y="-111"/>
			<point x="403" y="-132" type="curve" smooth="yes"/>
			<point x="403" y="-153"/>
			<point x="380" y="-162"/>
			<point x="328" y="-162" type="curve" smooth="yes"/>
			<point x="303" y="-162"/>
			<point x="264" y="-157"/>
			<point x="232" y="-142" type="curve"/>
			<point x="229" y="-142" type="line"/>
			<point x="207" y="-200" type="line"/>
		</contour>
		<component base="C" xOffset="-5"/>
	</outline>
</glyph>
<glyph name="divide" format="2">
	<advance width="620"/>
	<unicode hex="00F7"/>
	<outline>
		<contour>
			<point x="312" y="320" type="curve" smooth="yes"/>
			<point x="371" y="320"/>
			<point x="458" y="315"/>
			<point x="531" y="312" type="curve"/>
			<point x="540" y="320" type="line"/>
			<point x="540" y="394" type="line"/>
			<point x="531" y="402" type="line"/>
			<point x="459" y="399"/>
			<point x="369" y="394"/>
			<point x="310" y="394" type="curve" smooth="yes"/>
			<point x="251" y="394"/>
			<point x="181" y="399"/>
			<point x="89" y="402" type="curve"/>
			<point x="80" y="394" type="line"/>
			<point x="80" y="320" type="line"/>
			<point x="89" y="312" type="line"/>
			<point x="182" y="315"/>
			<point x="253" y="320"/>
		</contour>
		<contour>
			<point x="373" y="514" type="curve" smooth="yes"/>
			<point x="373" y="470"/>
			<point x="341" y="454"/>
			<point x="311" y="454" type="curve" smooth="yes"/>
			<point x="280" y="454"/>
			<point x="249" y="475"/>
			<point x="249" y="514" type="curve" smooth="yes"/>
			<point x="249" y="555"/>
			<point x="281" y="574"/>
			<point x="313" y="574" type="curve" smooth="yes"/>
			<point x="343" y="574"/>
			<point x="373" y="552"/>
		</contour>
		<contour>
			<point x="373" y="201" type="curve" smooth="yes"/>
			<point x="373" y="157"/>
			<point x="341" y="141"/>
			<point x="311" y="141" type="curve" smooth="yes"/>
			<point x="280" y="141"/>
			<point x="249" y="162"/>
			<point x="249" y="201" type="curve" smooth="yes"/>
			<point x="249" y="242"/>
			<point x="281" y="261"/>
			<point x="313" y="261" type="curve" smooth="yes"/>
			<point x="343" y="261"/>
			<point x="373" y="239"/>
		</contour>
	</outline>
</glyph>
<glyph name="tcaron" format="2">
	<advance width="383"/>
	<unicode hex="0165"/>
	<outline>
		<contour>
			<point x="290" y="563" type="line"/>
			<point x="337" y="563" type="line"/>
			<point x="347" y="570" type="line"/>
			<point x="354" y="650"/>
			<point x="357" y="697"/>
			<point x="368" y="771" type="curve"/>
			<point x="363" y="781" type="line"/>
			<point x="274" y="781" type="line"/>
			<point x="269" y="771" type="line"/>
			<point x="281" y="570" type="line"/>
		</contour>
		<component base="t" xOffset="-5"/>
	</outline>
</glyph>
<glyph name="Uogonek" format="2">
	<advance width="663"/>
	<unicode hex="0172"/>
	<anchor x="332" y="0" name="bottom"/>
	<anchor x="410" y="3" name="ogonek"/>
	<anchor x="332" y="700" name="top"/>
	<anchor x="648" y="700" name="topright"/>
	<outline>
		<contour>
			<point x="419" y="9" type="line"/>
			<point x="355" y="-34"/>
			<point x="314" y="-92"/>
			<point x="314" y="-144" type="curve"/>
			<point x="314" y="-189"/>
			<point x="343" y="-220"/>
			<point x="393" y="-220" type="curve"/>
			<point x="440" y="-220"/>
			<point x="469" y="-196"/>
			<point x="497" y="-167" type="curve"/>
			<point x="479" y="-145" type="line"/>
			<point x="461" y="-153"/>
			<point x="446" y="-158"/>
			<point x="426" y="-158" type="curve"/>
			<point x="403" y="-158"/>
			<point x="388" y="-145"/>
			<point x="388" y="-117" type="curve" smooth="yes"/>
			<point x="388" y="-82"/>
			<point x="410" y="-38"/>
			<point x="448" y="0" type="curve"/>
			<point x="528" y="55"/>
			<point x="583" y="114"/>
			<point x="583" y="306" type="curve" smooth="yes"/>
			<point x="583" y="433"/>
			<point x="587" y="561"/>
			<point x="593" y="690" type="curve"/>
			<point x="584" y="700" type="line"/>
			<point x="490" y="700" type="line"/>
			<point x="481" y="691" type="line"/>
			<point x="487" y="557"/>
			<point x="488" y="422"/>
			<point x="488" y="287" type="curve" smooth="yes"/>
			<point x="488" y="154"/>
			<point x="443" y="79"/>
			<point x="334" y="79" type="curve" smooth="yes"/>
			<point x="223" y="79"/>
			<point x="179" y="154"/>
			<point x="179" y="296" type="curve" smooth="yes"/>
			<point x="179" y="444"/>
			<point x="181" y="561"/>
			<point x="186" y="691" type="curve"/>
			<point x="177" y="700" type="line"/>
			<point x="79" y="700" type="line"/>
			<point x="70" y="690" type="line"/>
			<point x="75" y="562"/>
			<point x="80" y="434"/>
			<point x="80" y="306" type="curve" smooth="yes"/>
			<point x="80" y="84"/>
			<point x="164" y="-11"/>
			<point x="332" y="-11" type="curve" smooth="yes"/>
			<point x="384" y="-11"/>
			<point x="421" y="5"/>
			<point x="439" y="9" type="curve"/>
		</contour>
	</outline>
</glyph>
<glyph name="caron" format="2">
	<advance width="366"/>
	<unicode hex="02C7"/>
	<anchor x="184" y="516" name="_top"/>
	<outline>
		<contour>
			<point x="170" y="620" type="curve"/>
			<point x="206" y="620" type="line"/>
			<point x="174" y="673"/>
			<point x="141" y="713"/>
			<point x="99" y="789" type="curve"/>
			<point x="88" y="789" type="line"/>
			<point x="34" y="757" type="line"/>
			<point x="34" y="745" type="line"/>
			<point x="77" y="689"/>
			<point x="121" y="628"/>
			<point x="162" y="569" type="curve"/>
			<point x="209" y="569" type="line"/>
			<point x="249" y="631"/>
			<point x="287" y="680"/>
			<point x="339" y="751" type="curve"/>
			<point x="338" y="760" type="line"/>
			<point x="286" y="789" type="line"/>
			<point x="275" y="789" type="line"/>
			<point x="230" y="708"/>
			<point x="209" y="683"/>
		</contour>
	</outline>
</glyph>
<glyph name="breve" format="2">
	<advance width="600"/>
	<unicode hex="02D8"/>
	<anchor x="293" y="517" name="_top"/>
	<outline>
		<contour>
			<point x="295" y="579" type="curve" smooth="yes"/>
			<point x="176" y="579"/>
			<point x="139" y="683"/>
			<point x="139" y="757" type="curve"/>
			<point x="188" y="764" type="line"/>
			<point x="206" y="703"/>
			<point x="236" y="648"/>
			<point x="295" y="648" type="curve" smooth="yes"/>
			<point x="354" y="648"/>
			<point x="384" y="703"/>
			<point x="402" y="764" type="curve"/>
			<point x="451" y="757" type="line"/>
			<point x="451" y="683"/>
			<point x="414" y="579"/>
		</contour>
	</outline>
</glyph>
<glyph name="ogonek" format="2">
	<advance width="600"/>
	<unicode hex="02DB"/>
	<anchor x="410" y="0" name="_ogonek"/>
	<outline>
		<contour>
			<point x="373" y="9" type="line"/>
			<point x="309.12492" y="-33.91607"/>
			<point x="268" y="-92"/>
			<point x="268" y="-144" type="curve"/>
			<point x="268" y="-189"/>
			<point x="297" y="-220"/>
			<point x="347" y="-220" type="curve"/>
			<point x="393.65421" y="-220"/>
			<point x="423" y="-196"/>
			<point x="451" y="-167" type="curve"/>
			<point x="433" y="-145" type="line"/>
			<point x="415" y="-153"/>
			<point x="399.7451" y="-158"/>
			<point x="380" y="-158" type="curve"/>
			<point x="357" y="-158"/>
			<point x="342" y="-144.73529"/>
			<point x="342" y="-117" type="curve" smooth="yes"/>
			<point x="342" y="-82"/>
			<point x="364" y="-38"/>
			<point x="402" y="0" type="curve"/>
		</contour>
	</outline>
</glyph>
<glyph name="hungarumlaut" format="2">
	<advance width="371"/>
	<unicode hex="02DD"/>
	<anchor x="113" y="510" name="_top"/>
	<outline>
		<contour>
			<point x="188" y="551" type="line"/>
			<point x="195" y="555" type="line"/>
			<point x="341" y="747" type="line"/>
			<point x="338" y="756" type="line"/>
			<point x="266" y="799" type="line"/>
			<point x="256" y="797" type="line"/>
			<point x="146" y="583" type="line"/>
			<point x="148" y="575" type="line"/>
		</contour>
		<contour>
			<point x="4" y="551" type="line"/>
			<point x="11" y="555" type="line"/>
			<point x="157" y="747" type="line"/>
			<point x="154" y="756" type="line"/>
			<point x="82" y="799" type="line"/>
			<point x="72" y="797" type="line"/>
			<point x="-38" y="583" type="line"/>
			<point x="-36" y="575" type="line"/>
		</contour>
	</outline>
</glyph>
<glyph name="gravecomb" format="2">
	<advance width="236"/>
	<unicode hex="0300"/>
	<anchor x="166" y="510" name="_top"/>
	<outline>
		<contour>
			<point x="196" y="569" type="line"/>
			<point x="235" y="605" type="line"/>
			<point x="236" y="613" type="line"/>
			<point x="77" y="813" type="line"/>
			<point x="67" y="813" type="line"/>
			<point x="2" y="752" type="line"/>
			<point x="0" y="742" type="line"/>
			<point x="189" y="571" type="line"/>
		</contour>
	</outline>
</glyph>
<glyph name="circumflexcomb" format="2">
	<advance width="308"/>
	<unicode hex="0302"/>
	<anchor x="153" y="517" name="_top"/>
	<outline>
		<contour>
			<point x="169" y="737" type="curve"/>
			<point x="133" y="737" type="line"/>
			<point x="165" y="684"/>
			<point x="196" y="646"/>
			<point x="240" y="569" type="curve"/>
			<point x="251" y="569" type="line"/>
			<point x="305" y="601" type="line"/>
			<point x="305" y="613" type="line"/>
			<point x="262" y="669"/>
			<point x="218" y="730"/>
			<point x="177" y="789" type="curve"/>
			<point x="130" y="789" type="line"/>
			<point x="90" y="727"/>
			<point x="52" y="678"/>
			<point x="0" y="607" type="curve"/>
			<point x="1" y="598" type="line"/>
			<point x="53" y="569" type="line"/>
			<point x="64" y="569" type="line"/>
			<point x="109" y="644"/>
			<point x="130" y="674"/>
		</contour>
	</outline>
</glyph>
<glyph name="dotaccentcomb" format="2">
	<advance width="143"/>
	<unicode hex="0307"/>
	<anchor x="72" y="510" name="_top"/>
	<outline>
		<contour>
			<point x="64" y="632" type="curve" smooth="yes"/>
			<point x="90" y="632"/>
			<point x="138" y="639"/>
			<point x="138" y="687" type="curve" smooth="yes"/>
			<point x="138" y="716"/>
			<point x="126" y="765"/>
			<point x="81" y="765" type="curve" smooth="yes"/>
			<point x="55" y="765"/>
			<point x="5" y="755"/>
			<point x="5" y="709" type="curve" smooth="yes"/>
			<point x="5" y="676"/>
			<point x="17" y="632"/>
		</contour>
	</outline>
</glyph>
<glyph name="commaaccentcomb" format="2">
	<advance width="120"/>
	<unicode hex="0326"/>
	<anchor x="60" y="0" name="_bottom"/>
	<outline>
		<contour>
			<point x="120" y="-105" type="curve" smooth="yes"/>
			<point x="120" y="-156"/>
			<point x="89" y="-205"/>
			<point x="56" y="-262" type="curve"/>
			<point x="49" y="-262" type="line"/>
			<point x="20" y="-249" type="line"/>
			<point x="18" y="-243" type="line"/>
			<point x="26" y="-215"/>
			<point x="25" y="-198"/>
			<point x="25" y="-179" type="curve" smooth="yes"/>
			<point x="25" y="-147"/>
			<point x="0" y="-132"/>
			<point x="0" y="-105" type="curve" smooth="yes"/>
			<point x="0" y="-83"/>
			<point x="35" y="-43"/>
			<point x="59" y="-43" type="curve" smooth="yes"/>
			<point x="83" y="-43"/>
			<point x="120" y="-83"/>
		</contour>
	</outline>
</glyph>
<glyph name="cedillacomb" format="2">
	<advance width="251"/>
	<unicode hex="0327"/>
	<anchor x="117" y="0" name="_bottom"/>
	<outline>
		<contour>
			<point x="40" y="-218"/>
			<point x="74" y="-223"/>
			<point x="105" y="-223" type="curve" smooth="yes"/>
			<point x="195" y="-223"/>
			<point x="251" y="-188"/>
			<point x="251" y="-132" type="curve" smooth="yes"/>
			<point x="251" y="-86"/>
			<point x="195" y="-54"/>
			<point x="105" y="-49" type="curve"/>
			<point x="139" y="-76" type="line"/>
			<point x="153" y="0" type="line"/>
			<point x="93" y="0" type="line"/>
			<point x="75" y="-89" type="line"/>
			<point x="78" y="-91" type="line"/>
			<point x="144" y="-97"/>
			<point x="176" y="-110"/>
			<point x="176" y="-132" type="curve" smooth="yes"/>
			<point x="176" y="-152"/>
			<point x="154" y="-162"/>
			<point x="111" y="-162" type="curve" smooth="yes"/>
			<point x="86" y="-162"/>
			<point x="57" y="-157"/>
			<point x="25" y="-142" type="curve"/>
			<point x="22" y="-142" type="line"/>
			<point x="0" y="-200" type="line"/>
			<point x="2" y="-204" type="line"/>
		</contour>
	</outline>
</glyph>
<glyph name="quoteleft" format="2">
	<advance width="230"/>
	<unicode hex="2018"/>
	<outline>
		<contour>
			<point x="80" y="473" type="curve" smooth="yes"/>
			<point x="80" y="524"/>
			<point x="118" y="607"/>
			<point x="161" y="710" type="curve"/>
			<point x="168" y="710" type="line"/>
			<point x="197" y="697" type="line"/>
			<point x="200" y="691" type="line"/>
			<point x="185" y="634"/>
			<point x="180" y="595"/>
			<point x="180" y="567" type="curve" smooth="yes"/>
			<point x="180" y="512"/>
			<point x="200" y="500"/>
			<point x="200" y="473" type="curve" smooth="yes"/>
			<point x="200" y="451"/>
			<point x="165" y="411"/>
			<point x="141" y="411" type="curve" smooth="yes"/>
			<point x="117" y="411"/>
			<point x="80" y="451"/>
		</contour>
	</outline>
</glyph>
<glyph name="quoteright" format="2">
	<advance width="230"/>
	<unicode hex="2019"/>
	<outline>
		<contour>
			<point x="150" y="718" type="curve" smooth="yes"/>
			<point x="150" y="667"/>
			<point x="112" y="584"/>
			<point x="69" y="481" type="curve"/>
			<point x="62" y="481" type="line"/>
			<point x="33" y="494" type="line"/>
			<point x="30" y="500" type="line"/>
			<point x="45" y="557"/>
			<point x="50" y="596"/>
			<point x="50" y="624" type="curve" smooth="yes"/>
			<point x="50" y="679"/>
			<point x="30" y="691"/>
			<point x="30" y="718" type="curve" smooth="yes"/>
			<point x="30" y="740"/>
			<point x="65" y="780"/>
			<point x="89" y="780" type="curve" smooth="yes"/>
			<point x="113" y="780"/>
			<point x="150" y="740"/>
		</contour>
	</outline>
</glyph>
<glyph name="northEastArrow" format="2">
	<advance width="513"/>
	<unicode hex="2197"/>
	<outline>
		<contour>
			<point x="425" y="472" type="curve"/>
			<point x="372" y="524" type="line"/>
			<point x="330" y="483"/>
			<point x="118" y="277"/>
			<point x="50" y="214" type="curve"/>
			<point x="50" y="202" type="line"/>
			<point x="102" y="150" type="line"/>
			<point x="114" y="150" type="line"/>
			<point x="178" y="218"/>
			<point x="383" y="430"/>
		</contour>
		<contour>
			<point x="413" y="493" type="curve"/>
			<point x="393" y="514" type="line"/>
			<point x="388" y="442"/>
			<point x="382" y="367"/>
			<point x="379" y="287" type="curve"/>
			<point x="386" y="278" type="line"/>
			<point x="455" y="278" type="line"/>
			<point x="463" y="287" type="line"/>
			<point x="455" y="534" type="line"/>
			<point x="431" y="557" type="line"/>
			<point x="186" y="563" type="line"/>
			<point x="177" y="555" type="line"/>
			<point x="177" y="487" type="line"/>
			<point x="186" y="479" type="line"/>
			<point x="260" y="481"/>
			<point x="347" y="487"/>
		</contour>
	</outline>
</glyph>
<glyph name="notequal" format="2">
	<advance width="600"/>
	<unicode hex="2260"/>
	<outline>
		<contour>
			<point x="312" y="420" type="curve" smooth="yes"/>
			<point x="371" y="420"/>
			<point x="458" y="415"/>
			<point x="531" y="412" type="curve"/>
			<point x="540" y="420" type="line"/>
			<point x="540" y="494" type="line"/>
			<point x="531" y="502" type="line"/>
			<point x="459" y="499"/>
			<point x="369" y="494"/>
			<point x="310" y="494" type="curve" smooth="yes"/>
			<point x="251" y="494"/>
			<point x="181" y="499"/>
			<point x="89" y="502" type="curve"/>
			<point x="80" y="494" type="line"/>
			<point x="80" y="420" type="line"/>
			<point x="89" y="412" type="line"/>
			<point x="182" y="415"/>
			<point x="253" y="420"/>
		</contour>
		<contour>
			<point x="312" y="240" type="curve" smooth="yes"/>
			<point x="371" y="240"/>
			<point x="458" y="235"/>
			<point x="531" y="232" type="curve"/>
			<point x="540" y="240" type="line"/>
			<point x="540" y="314" type="line"/>
			<point x="531" y="322" type="line"/>
			<point x="459" y="319"/>
			<point x="369" y="314"/>
			<point x="310" y="314" type="curve" smooth="yes"/>
			<point x="251" y="314"/>
			<point x="181" y="319"/>
			<point x="89" y="322" type="curve"/>
			<point x="80" y="314" type="line"/>
			<point x="80" y="240" type="line"/>
			<point x="89" y="232" type="line"/>
			<point x="182" y="235"/>
			<point x="253" y="240"/>
		</contour>
		<contour>
			<point x="186" y="95" type="line"/>
			<point x="261" y="95" type="line"/>
			<point x="269" y="105" type="line"/>
			<point x="428" y="621" type="line"/>
			<point x="424" y="629" type="line"/>
			<point x="350" y="629" type="line"/>
			<point x="343" y="622" type="line"/>
			<point x="184" y="105" type="line"/>
		</contour>
	</outline>
</glyph>
<glyph name="greaterequal" format="2">
	<advance width="600"/>
	<unicode hex="2265"/>
	<outline>
		<contour>
			<point x="309" y="54" type="curve" smooth="yes"/>
			<point x="368" y="54"/>
			<point x="434" y="49"/>
			<point x="507" y="46" type="curve"/>
			<point x="516" y="54" type="line"/>
			<point x="516" y="128" type="line"/>
			<point x="507" y="136" type="line"/>
			<point x="435" y="133"/>
			<point x="366" y="128"/>
			<point x="307" y="128" type="curve" smooth="yes"/>
			<point x="258" y="128"/>
			<point x="207" y="133"/>
			<point x="115" y="136" type="curve"/>
			<point x="106" y="128" type="line"/>
			<point x="106" y="54" type="line"/>
			<point x="115" y="46" type="line"/>
			<point x="208" y="49"/>
			<point x="260" y="54"/>
		</contour>
		<contour>
			<point x="484" y="390" type="line"/>
			<point x="354" y="346"/>
			<point x="242" y="311"/>
			<point x="109" y="270" type="curve"/>
			<point x="102" y="263" type="line"/>
			<point x="105" y="193" type="line"/>
			<point x="112" y="189" type="line"/>
			<point x="248" y="239"/>
			<point x="374" y="285"/>
			<point x="510" y="325" type="curve"/>
			<point x="519" y="335" type="line"/>
			<point x="516" y="420" type="line"/>
			<point x="507" y="430" type="line"/>
			<point x="371" y="470"/>
			<point x="245" y="516"/>
			<point x="109" y="566" type="curve"/>
			<point x="102" y="562" type="line"/>
			<point x="99" y="492" type="line"/>
			<point x="106" y="485" type="line"/>
			<point x="239" y="444"/>
			<point x="354" y="411"/>
			<point x="487" y="365" type="curve"/>
		</contour>
	</outline>
</glyph>
<glyph name="Saltillo" format="2">
	<advance width="199"/>
	<unicode hex="A78B"/>
	<outline>
		<contour>
			<point x="66" y="280" type="curve"/>
			<point x="76" y="273" type="line"/>
			<point x="123" y="273" type="line"/>
			<point x="132" y="280" type="line"/>
			<point x="131" y="420"/>
			<point x="139" y="557"/>
			<point x="154" y="691" type="curve"/>
			<point x="149" y="701" type="line"/>
			<point x="50" y="701" type="line"/>
			<point x="45" y="691" type="line"/>
			<point x="44" y="557"/>
			<point x="51" y="420"/>
		</contour>
	</outline>
</glyph>
<glyph name="Q.alt" format="2">
	<advance width="730"/>
	<outline>
		<contour>
			<point x="365" y="-10" type="curve" smooth="yes"/>
			<point x="548" y="-10"/>
			<point x="660" y="122"/>
			<point x="660" y="345" type="curve" smooth="yes"/>
			<point x="660" y="578"/>
			<point x="548" y="710"/>
			<point x="365" y="710" type="curve" smooth="yes"/>
			<point x="182" y="710"/>
			<point x="70" y="578"/>
			<point x="70" y="345" type="curve" smooth="yes"/>
			<point x="70" y="122"/>
			<point x="182" y="-10"/>
		</contour>
		<contour>
			<point x="552" y="-106" type="line"/>
			<point x="629" y="-47" type="line"/>
			<point x="629" y="-29" type="line"/>
			<point x="388" y="260" type="line"/>
			<point x="380" y="262" type="line"/>
			<point x="334" y="233" type="line"/>
			<point x="331" y="225" type="line"/>
			<point x="534" y="-106" type="line"/>
		</contour>
		<contour>
			<point x="365" y="80" type="curve" smooth="yes"/>
			<point x="240" y="80"/>
			<point x="170" y="171"/>
			<point x="170" y="345" type="curve" smooth="yes"/>
			<point x="170" y="529"/>
			<point x="240" y="620"/>
			<point x="365" y="620" type="curve" smooth="yes"/>
			<point x="490" y="620"/>
			<point x="560" y="529"/>
			<point x="560" y="345" type="curve" smooth="yes"/>
			<point x="560" y="171"/>
			<point x="490" y="80"/>
		</contour>
	</outline>
</glyph>
<glyph name="a.alt" format="2">
	<advance width="542"/>
	<outline>
		<contour>
			<point x="215" y="-10" type="curve" smooth="yes"/>
			<point x="309.55151" y="-10"/>
			<point x="351" y="51"/>
			<point x="364" y="90" type="curve"/>
			<point x="342" y="79" type="line"/>
			<point x="377" y="79" type="line"/>
			<point x="361" y="98" type="line"/>
			<point x="361" y="32"/>
			<point x="373" y="-8"/>
			<point x="416" y="-8" type="curve" smooth="yes"/>
			<point x="442" y="-8"/>
			<point x="475" y="-5"/>
			<point x="498" y="0" type="curve"/>
			<point x="502" y="65" type="line"/>
			<point x="409" y="84" type="line"/>
			<point x="458" y="38" type="line"/>
			<point x="452" y="92"/>
			<point x="450" y="143"/>
			<point x="450" y="296" type="curve" smooth="yes"/>
			<point x="450" y="418"/>
			<point x="454" y="464"/>
			<point x="459" y="492" type="curve"/>
			<point x="454" y="502" type="line"/>
			<point x="390" y="510" type="line"/>
			<point x="382" y="503" type="line"/>
			<point x="365" y="422" type="line"/>
			<point x="365" y="260" type="line" smooth="yes"/>
			<point x="365" y="147"/>
			<point x="331" y="64"/>
			<point x="240" y="64" type="curve" smooth="yes"/>
			<point x="173" y="64"/>
			<point x="146" y="136"/>
			<point x="146" y="261" type="curve" smooth="yes"/>
			<point x="146" y="385"/>
			<point x="178" y="440"/>
			<point x="251" y="440" type="curve" smooth="yes"/>
			<point x="288" y="440"/>
			<point x="345" y="418"/>
			<point x="381" y="392" type="curve"/>
			<point x="387" y="449" type="line"/>
			<point x="364" y="471"/>
			<point x="313" y="520"/>
			<point x="226" y="520" type="curve" smooth="yes"/>
			<point x="131" y="520"/>
			<point x="50" y="453"/>
			<point x="50" y="258" type="curve" smooth="yes"/>
			<point x="50" y="80"/>
			<point x="110" y="-10"/>
		</contour>
	</outline>
</glyph>
<glyph name="acutecomb.case" format="2">
	<advance width="268"/>
	<anchor x="104" y="701" name="_top"/>
	<outline>
		<contour>
			<point x="26" y="761" type="line"/>
			<point x="33" y="761" type="line"/>
			<point x="267" y="862" type="line"/>
			<point x="268" y="872" type="line"/>
			<point x="226" y="951" type="line"/>
			<point x="217" y="954" type="line"/>
			<point x="2" y="816" type="line"/>
			<point x="0" y="808" type="line"/>
		</contour>
	</outline>
</glyph>
<glyph name="arrowup.alt" format="2">
	<advance width="750"/>
	<outline>
		<contour>
			<point x="375" y="-10" type="curve" smooth="yes"/>
			<point x="575" y="-10"/>
			<point x="700" y="129"/>
			<point x="700" y="350" type="curve" smooth="yes"/>
			<point x="700" y="571"/>
			<point x="575" y="710"/>
			<point x="375" y="710" type="curve" smooth="yes"/>
			<point x="175" y="710"/>
			<point x="50" y="571"/>
			<point x="50" y="350" type="curve" smooth="yes"/>
			<point x="50" y="129"/>
			<point x="175" y="-10"/>
		</contour>
		<contour>
			<point x="375" y="55" type="curve" smooth="yes"/>
			<point x="208" y="55"/>
			<point x="120" y="155"/>
			<point x="120" y="350" type="curve" smooth="yes"/>
			<point x="120" y="545"/>
			<point x="208" y="645"/>
			<point x="375" y="645" type="curve" smooth="yes"/>
			<point x="542" y="645"/>
			<point x="630" y="545"/>
			<point x="630" y="350" type="curve" smooth="yes"/>
			<point x="630" y="155"/>
			<point x="542" y="55"/>
		</contour>
		<contour>
			<point x="405" y="487" type="curve"/>
			<point x="341" y="487" type="line"/>
			<point x="341" y="444"/>
			<point x="335" y="227"/>
			<point x="333" y="160" type="curve"/>
			<point x="341" y="151" type="line"/>
			<point x="405" y="151" type="line"/>
			<point x="413" y="160" type="line"/>
			<point x="411" y="228"/>
			<point x="405" y="444"/>
		</contour>
		<contour>
			<point x="382" y="494" type="curve"/>
			<point x="363" y="494" type="line"/>
			<point x="412" y="446"/>
			<point x="465" y="384"/>
			<point x="512" y="332" type="curve"/>
			<point x="524" y="331" type="line"/>
			<point x="571" y="378" type="line"/>
			<point x="570" y="390" type="line"/>
			<point x="514" y="438"/>
			<point x="438" y="506"/>
			<point x="389" y="545" type="curve"/>
			<point x="356" y="545" type="line"/>
			<point x="307" y="506"/>
			<point x="231" y="438"/>
			<point x="175" y="390" type="curve"/>
			<point x="174" y="378" type="line"/>
			<point x="221" y="331" type="line"/>
			<point x="233" y="332" type="line"/>
			<point x="280" y="384"/>
			<point x="333" y="446"/>
		</contour>
	</outline>
</glyph>
<glyph name="banio.001" format="2">
	<advance width="714"/>
	<guideline x="357" y="154" angle="90"/>
	<guideline x="385" y="630" angle="90"/>
	<outline>
		<contour>
			<point x="270" y="145" type="line"/>
			<point x="196" y="145" type="line"/>
			<point x="142" y="0" type="line"/>
			<point x="216" y="0" type="line"/>
		</contour>
		<contour>
			<point x="357" y="216" type="line"/>
			<point x="357" y="281" type="line"/>
			<point x="190" y="281" type="line" smooth="yes"/>
			<point x="184" y="281"/>
			<point x="180" y="285"/>
			<point x="180" y="291" type="curve" smooth="yes"/>
			<point x="180" y="351" type="line"/>
			<point x="110" y="351" type="line"/>
			<point x="110" y="241" type="line" smooth="yes"/>
			<point x="110" y="225"/>
			<point x="119" y="216"/>
			<point x="135" y="216" type="curve" smooth="yes"/>
		</contour>
		<contour>
			<point x="357" y="392" type="line"/>
			<point x="120" y="392" type="line" smooth="yes"/>
			<point x="114" y="392"/>
			<point x="110" y="396"/>
			<point x="110" y="402" type="curve" smooth="yes"/>
			<point x="110" y="602" type="line" smooth="yes"/>
			<point x="110" y="608"/>
			<point x="114" y="612"/>
			<point x="120" y="612" type="curve" smooth="yes"/>
			<point x="247" y="612" type="line"/>
			<point x="256" y="677" type="line"/>
			<point x="65" y="677" type="line" smooth="yes"/>
			<point x="49" y="677"/>
			<point x="40" y="668"/>
			<point x="40" y="652" type="curve" smooth="yes"/>
			<point x="40" y="351" type="line" smooth="yes"/>
			<point x="40" y="335"/>
			<point x="49" y="326"/>
			<point x="65" y="326" type="curve" smooth="yes"/>
			<point x="357" y="327" type="line"/>
		</contour>
		<contour>
			<point x="357" y="49" type="curve"/>
			<point x="357" y="114" type="line"/>
			<point x="246" y="114"/>
			<point x="227" y="233"/>
			<point x="227" y="255" type="curve"/>
			<point x="157" y="255" type="line"/>
			<point x="157" y="198"/>
			<point x="207" y="49"/>
		</contour>
		<contour>
			<point x="200" y="327" type="curve"/>
			<point x="274" y="327" type="line"/>
			<point x="247" y="357"/>
			<point x="235" y="403"/>
			<point x="235" y="476" type="curve" smooth="yes"/>
			<point x="235" y="598"/>
			<point x="268" y="645"/>
			<point x="357" y="645" type="curve"/>
			<point x="357" y="710" type="line"/>
			<point x="238" y="710"/>
			<point x="165" y="620"/>
			<point x="165" y="476" type="curve" smooth="yes"/>
			<point x="165" y="420"/>
			<point x="178" y="366"/>
		</contour>
		<contour>
			<point x="444" y="145" type="line"/>
			<point x="498" y="0" type="line"/>
			<point x="572" y="0" type="line"/>
			<point x="518" y="145" type="line"/>
		</contour>
		<contour>
			<point x="357" y="216" type="line"/>
			<point x="579" y="216" type="line" smooth="yes"/>
			<point x="595" y="216"/>
			<point x="604" y="225"/>
			<point x="604" y="241" type="curve" smooth="yes"/>
			<point x="604" y="351" type="line"/>
			<point x="534" y="351" type="line"/>
			<point x="534" y="291" type="line" smooth="yes"/>
			<point x="534" y="285"/>
			<point x="530" y="281"/>
			<point x="524" y="281" type="curve" smooth="yes"/>
			<point x="357" y="281" type="line"/>
		</contour>
		<contour>
			<point x="357" y="392" type="line"/>
			<point x="357" y="327" type="line"/>
			<point x="649" y="326" type="line" smooth="yes"/>
			<point x="665" y="326"/>
			<point x="674" y="335"/>
			<point x="674" y="351" type="curve" smooth="yes"/>
			<point x="674" y="652" type="line" smooth="yes"/>
			<point x="674" y="668"/>
			<point x="665" y="677"/>
			<point x="649" y="677" type="curve" smooth="yes"/>
			<point x="458" y="677" type="line"/>
			<point x="467" y="612" type="line"/>
			<point x="594" y="612" type="line" smooth="yes"/>
			<point x="600" y="612"/>
			<point x="604" y="608"/>
			<point x="604" y="602" type="curve" smooth="yes"/>
			<point x="604" y="402" type="line" smooth="yes"/>
			<point x="604" y="396"/>
			<point x="600" y="392"/>
			<point x="594" y="392" type="curve" smooth="yes"/>
		</contour>
		<contour>
			<point x="357" y="49" type="line"/>
			<point x="507" y="49"/>
			<point x="557" y="198"/>
			<point x="557" y="255" type="curve"/>
			<point x="487" y="255" type="line"/>
			<point x="487" y="233"/>
			<point x="468" y="114"/>
			<point x="357" y="114" type="curve"/>
		</contour>
		<contour>
			<point x="514" y="327" type="line"/>
			<point x="536" y="366"/>
			<point x="549" y="420"/>
			<point x="549" y="476" type="curve" smooth="yes"/>
			<point x="549" y="620"/>
			<point x="476" y="710"/>
			<point x="357" y="710" type="curve"/>
			<point x="357" y="645" type="line"/>
			<point x="446" y="645"/>
			<point x="479" y="598"/>
			<point x="479" y="476" type="curve" smooth="yes"/>
			<point x="479" y="403"/>
			<point x="467" y="357"/>
			<point x="440" y="327" type="curve"/>
		</contour>
	</outline>
</glyph>
<glyph name="banio.002" format="2">
	<advance width="594"/>
	<guideline x="297" y="154" angle="90"/>
	<guideline x="325" y="630" angle="90"/>
	<outline>
		<contour>
			<point x="297" y="216" type="line"/>
			<point x="297" y="281" type="line"/>
			<point x="130" y="281" type="line" smooth="yes"/>
			<point x="124" y="281"/>
			<point x="120" y="285"/>
			<point x="120" y="291" type="curve" smooth="yes"/>
			<point x="120" y="351" type="line"/>
			<point x="50" y="351" type="line"/>
			<point x="50" y="241" type="line" smooth="yes"/>
			<point x="50" y="225"/>
			<point x="59" y="216"/>
			<point x="75" y="216" type="curve" smooth="yes"/>
		</contour>
		<contour>
			<point x="297" y="392" type="line"/>
			<point x="50" y="392" type="line"/>
			<point x="50" y="326" type="line"/>
			<point x="297" y="327" type="line"/>
		</contour>
		<contour>
			<point x="297" y="49" type="curve"/>
			<point x="297" y="114" type="line"/>
			<point x="186" y="114"/>
			<point x="167" y="233"/>
			<point x="167" y="255" type="curve"/>
			<point x="97" y="255" type="line"/>
			<point x="97" y="198"/>
			<point x="147" y="49"/>
		</contour>
		<contour>
			<point x="140" y="327" type="curve"/>
			<point x="214" y="327" type="line"/>
			<point x="187" y="357"/>
			<point x="175" y="403"/>
			<point x="175" y="476" type="curve" smooth="yes"/>
			<point x="175" y="598"/>
			<point x="208" y="645"/>
			<point x="297" y="645" type="curve"/>
			<point x="297" y="710" type="line"/>
			<point x="178" y="710"/>
			<point x="105" y="620"/>
			<point x="105" y="476" type="curve" smooth="yes"/>
			<point x="105" y="420"/>
			<point x="118" y="366"/>
		</contour>
		<contour>
			<point x="297" y="216" type="line"/>
			<point x="519" y="216" type="line" smooth="yes"/>
			<point x="535" y="216"/>
			<point x="544" y="225"/>
			<point x="544" y="241" type="curve" smooth="yes"/>
			<point x="544" y="351" type="line"/>
			<point x="474" y="351" type="line"/>
			<point x="474" y="291" type="line" smooth="yes"/>
			<point x="474" y="285"/>
			<point x="470" y="281"/>
			<point x="464" y="281" type="curve" smooth="yes"/>
			<point x="297" y="281" type="line"/>
		</contour>
		<contour>
			<point x="297" y="49" type="line"/>
			<point x="447" y="49"/>
			<point x="497" y="198"/>
			<point x="497" y="255" type="curve"/>
			<point x="427" y="255" type="line"/>
			<point x="427" y="233"/>
			<point x="408" y="114"/>
			<point x="297" y="114" type="curve"/>
		</contour>
		<contour>
			<point x="454" y="327" type="line"/>
			<point x="476" y="366"/>
			<point x="489" y="420"/>
			<point x="489" y="476" type="curve" smooth="yes"/>
			<point x="489" y="620"/>
			<point x="416" y="710"/>
			<point x="297" y="710" type="curve"/>
			<point x="297" y="645" type="line"/>
			<point x="386" y="645"/>
			<point x="419" y="598"/>
			<point x="419" y="476" type="curve" smooth="yes"/>
			<point x="419" y="403"/>
			<point x="407" y="357"/>
			<point x="380" y="327" type="curve"/>
		</contour>
		<contour>
			<point x="297" y="392" type="line"/>
			<point x="297" y="327" type="line"/>
			<point x="544" y="326" type="line"/>
			<point x="544" y="392" type="line"/>
		</contour>
	</outline>
</glyph>
<glyph name="caroncomb.case" format="2">
	<advance width="600"/>
	<anchor x="184" y="576" name="_top"/>
	<outline>
		<contour>
			<point x="197" y="693" type="line"/>
			<point x="176" y="721"/>
			<point x="144" y="752"/>
			<point x="94" y="832" type="curve"/>
			<point x="83" y="832" type="line"/>
			<point x="31" y="794" type="line"/>
			<point x="30" y="785" type="line"/>
			<point x="83" y="721"/>
			<point x="118" y="677"/>
			<point x="142" y="639" type="curve"/>
			<point x="226" y="639" type="line"/>
			<point x="250" y="677"/>
			<point x="285" y="721"/>
			<point x="338" y="785" type="curve"/>
			<point x="337" y="794" type="line"/>
			<point x="285" y="832" type="line"/>
			<point x="274" y="832" type="line"/>
			<point x="223" y="752"/>
			<point x="192" y="721"/>
			<point x="171" y="693" type="curve"/>
		</contour>
	</outline>
</glyph>
<glyph name="circulo" format="2">
	<advance width="579"/>
	<outline>
		<contour>
			<point x="290" y="106" type="curve" smooth="yes"/>
			<point x="431" y="106"/>
			<point x="529" y="206"/>
			<point x="529" y="351" type="curve" smooth="yes"/>
			<point x="529" y="496"/>
			<point x="431" y="596"/>
			<point x="290" y="596" type="curve" smooth="yes"/>
			<point x="148" y="596"/>
			<point x="50" y="496"/>
			<point x="50" y="351" type="curve" smooth="yes"/>
			<point x="50" y="206"/>
			<point x="148" y="106"/>
		</contour>
		<contour>
			<point x="291" y="177" type="curve" smooth="yes"/>
			<point x="188" y="177"/>
			<point x="127" y="244"/>
			<point x="127" y="351" type="curve" smooth="yes"/>
			<point x="127" y="459"/>
			<point x="188" y="526"/>
			<point x="291" y="526" type="curve" smooth="yes"/>
			<point x="391" y="526"/>
			<point x="452" y="459"/>
			<point x="452" y="351" type="curve" smooth="yes"/>
			<point x="452" y="244"/>
			<point x="391" y="177"/>
		</contour>
	</outline>
</glyph>
<glyph name="circumflexcomb.case" format="2">
	<advance width="348"/>
	<anchor x="174" y="700" name="_top"/>
	<outline>
		<contour>
			<point x="187" y="901" type="curve"/>
			<point x="161" y="901" type="line"/>
			<point x="187" y="873"/>
			<point x="220" y="842"/>
			<point x="284" y="762" type="curve"/>
			<point x="295" y="762" type="line"/>
			<point x="347" y="800" type="line"/>
			<point x="348" y="809" type="line"/>
			<point x="285" y="873"/>
			<point x="240" y="917"/>
			<point x="216" y="955" type="curve"/>
			<point x="132" y="955" type="line"/>
			<point x="108" y="917"/>
			<point x="63" y="873"/>
			<point x="0" y="809" type="curve"/>
			<point x="1" y="800" type="line"/>
			<point x="53" y="762" type="line"/>
			<point x="64" y="762" type="line"/>
			<point x="127" y="842"/>
			<point x="160" y="873"/>
		</contour>
	</outline>
</glyph>
<glyph name="eight.osf" format="2">
	<advance width="511"/>
	<outline>
		<contour>
			<point x="247" y="-10" type="curve" smooth="yes"/>
			<point x="380" y="-10"/>
			<point x="471" y="67"/>
			<point x="471" y="203" type="curve"/>
			<point x="471" y="409"/>
			<point x="140" y="419"/>
			<point x="140" y="548" type="curve"/>
			<point x="140" y="611"/>
			<point x="185" y="640"/>
			<point x="249" y="640" type="curve" smooth="yes"/>
			<point x="323" y="640"/>
			<point x="371" y="607"/>
			<point x="371" y="543" type="curve" smooth="yes"/>
			<point x="371" y="469"/>
			<point x="339" y="426"/>
			<point x="260" y="398" type="curve"/>
			<point x="193" y="373" type="line"/>
			<point x="104" y="351"/>
			<point x="40" y="281"/>
			<point x="40" y="180" type="curve" smooth="yes"/>
			<point x="40" y="55"/>
			<point x="126" y="-10"/>
		</contour>
		<contour>
			<point x="264" y="60" type="curve"/>
			<point x="181" y="60"/>
			<point x="130" y="116"/>
			<point x="130" y="187" type="curve"/>
			<point x="130" y="274.45638"/>
			<point x="174" y="320"/>
			<point x="241" y="344" type="curve"/>
			<point x="288" y="360" type="line"/>
			<point x="392" y="395"/>
			<point x="461" y="451.01124"/>
			<point x="461" y="540" type="curve" smooth="yes"/>
			<point x="461" y="640"/>
			<point x="378" y="710"/>
			<point x="256" y="710" type="curve"/>
			<point x="121" y="710"/>
			<point x="51" y="634"/>
			<point x="50" y="537" type="curve"/>
			<point x="50" y="323"/>
			<point x="381" y="339"/>
			<point x="381" y="181" type="curve" smooth="yes"/>
			<point x="381" y="99"/>
			<point x="334" y="60"/>
		</contour>
	</outline>
</glyph>
<glyph name="eight.tf" format="2">
	<advance width="600"/>
	<outline>
		<contour>
			<point x="287" y="-10" type="curve" smooth="yes"/>
			<point x="432" y="-10"/>
			<point x="531" y="77"/>
			<point x="531" y="203" type="curve"/>
			<point x="531" y="419"/>
			<point x="190" y="409"/>
			<point x="190" y="548" type="curve"/>
			<point x="190" y="611"/>
			<point x="231" y="640"/>
			<point x="289" y="640" type="curve" smooth="yes"/>
			<point x="351" y="640"/>
			<point x="391" y="607"/>
			<point x="391" y="543" type="curve" smooth="yes"/>
			<point x="391" y="469"/>
			<point x="363" y="428"/>
			<point x="296" y="408" type="curve"/>
			<point x="221" y="381" type="line"/>
			<point x="133" y="359"/>
			<point x="60" y="280"/>
			<point x="60" y="180" type="curve" smooth="yes"/>
			<point x="60" y="68"/>
			<point x="154" y="-10"/>
		</contour>
		<contour>
			<point x="309" y="60" type="curve"/>
			<point x="215" y="60"/>
			<point x="160" y="109"/>
			<point x="160" y="187" type="curve"/>
			<point x="160" y="270"/>
			<point x="218" y="308"/>
			<point x="286" y="336" type="curve"/>
			<point x="334" y="362" type="line"/>
			<point x="429" y="393"/>
			<point x="491" y="452"/>
			<point x="491" y="540" type="curve" smooth="yes"/>
			<point x="491" y="640"/>
			<point x="412" y="710"/>
			<point x="296" y="710" type="curve"/>
			<point x="168" y="710"/>
			<point x="101" y="634"/>
			<point x="100" y="537" type="curve"/>
			<point x="100" y="323"/>
			<point x="437" y="340"/>
			<point x="437" y="181" type="curve" smooth="yes"/>
			<point x="437" y="100"/>
			<point x="383" y="60"/>
		</contour>
	</outline>
</glyph>
<glyph name="five.osf" format="2">
	<advance width="461"/>
	<outline>
		<contour>
			<point x="74" y="225" type="line"/>
			<point x="270" y="188"/>
			<point x="341" y="178"/>
			<point x="341" y="96" type="curve"/>
			<point x="341" y="-4"/>
			<point x="196" y="-84"/>
			<point x="45" y="-175" type="curve"/>
			<point x="40" y="-179" type="line"/>
			<point x="63" y="-222" type="line"/>
			<point x="68" y="-225" type="line"/>
			<point x="316" y="-112"/>
			<point x="431" y="-36"/>
			<point x="431" y="107" type="curve"/>
			<point x="431" y="225"/>
			<point x="326" y="248"/>
			<point x="115" y="285" type="curve"/>
			<point x="132" y="254" type="line"/>
			<point x="152" y="459" type="line"/>
			<point x="120" y="429" type="line"/>
			<point x="211" y="429"/>
			<point x="321" y="424"/>
			<point x="400" y="421" type="curve"/>
			<point x="405" y="430" type="line"/>
			<point x="405" y="501" type="line"/>
			<point x="401" y="511" type="line"/>
			<point x="355" y="508"/>
			<point x="303" y="506"/>
			<point x="251" y="506" type="curve" smooth="yes"/>
			<point x="184" y="506"/>
			<point x="140" y="508"/>
			<point x="81" y="510" type="curve"/>
			<point x="75" y="500" type="line"/>
			<point x="52" y="245" type="line"/>
		</contour>
	</outline>
</glyph>
<glyph name="four.osf" format="2">
	<advance width="537"/>
	<outline>
		<contour>
			<point x="504" y="178" type="curve"/>
			<point x="507" y="182" type="line"/>
			<point x="507" y="265" type="line"/>
			<point x="504" y="269" type="line"/>
			<point x="457" y="265"/>
			<point x="219" y="257"/>
			<point x="72" y="257" type="curve"/>
			<point x="108" y="221" type="line"/>
			<point x="367" y="655" type="line"/>
			<point x="366" y="667" type="line"/>
			<point x="309" y="698" type="line"/>
			<point x="296" y="694" type="line"/>
			<point x="20" y="223" type="line"/>
			<point x="21" y="212" type="line"/>
			<point x="38" y="189" type="line"/>
			<point x="48" y="183" type="line"/>
			<point x="158" y="183"/>
			<point x="463" y="178"/>
		</contour>
		<contour>
			<point x="334" y="0" type="line"/>
			<point x="429" y="0" type="line"/>
			<point x="434" y="10" type="line"/>
			<point x="432" y="44"/>
			<point x="424" y="202"/>
			<point x="424" y="294" type="curve" smooth="yes"/>
			<point x="424" y="370.07843"/>
			<point x="425.14654" y="439.49116"/>
			<point x="428" y="488" type="curve"/>
			<point x="423" y="500" type="line"/>
			<point x="340" y="500" type="line"/>
			<point x="335" y="489" type="line"/>
			<point x="338.80606" y="439.52128"/>
			<point x="339" y="369.14634"/>
			<point x="339" y="294" type="curve" smooth="yes"/>
			<point x="339" y="202"/>
			<point x="331" y="44"/>
			<point x="329" y="10" type="curve"/>
		</contour>
	</outline>
</glyph>
<glyph name="four.tf" format="2">
	<advance width="600"/>
	<outline>
		<contour>
			<point x="539" y="191" type="curve"/>
			<point x="542" y="195" type="line"/>
			<point x="542" y="284" type="line"/>
			<point x="539" y="288" type="line"/>
			<point x="492" y="284"/>
			<point x="254" y="276"/>
			<point x="107" y="276" type="curve"/>
			<point x="139" y="241" type="line"/>
			<point x="411" y="664" type="line"/>
			<point x="410" y="676" type="line"/>
			<point x="357" y="707" type="line"/>
			<point x="344" y="703" type="line"/>
			<point x="55" y="243" type="line"/>
			<point x="56" y="232" type="line"/>
			<point x="73" y="202" type="line"/>
			<point x="83" y="196" type="line"/>
			<point x="193" y="196"/>
			<point x="498" y="191"/>
		</contour>
		<contour>
			<point x="365" y="0" type="line"/>
			<point x="459" y="0" type="line"/>
			<point x="464" y="10" type="line"/>
			<point x="462" y="44"/>
			<point x="454" y="202"/>
			<point x="454" y="294" type="curve" smooth="yes"/>
			<point x="454" y="378"/>
			<point x="456" y="455"/>
			<point x="459" y="508" type="curve"/>
			<point x="454" y="520" type="line"/>
			<point x="370" y="520" type="line"/>
			<point x="365" y="509" type="line"/>
			<point x="369" y="455"/>
			<point x="370" y="377"/>
			<point x="370" y="294" type="curve" smooth="yes"/>
			<point x="370" y="202"/>
			<point x="362" y="44"/>
			<point x="360" y="10" type="curve"/>
		</contour>
	</outline>
</glyph>
<glyph name="gravecomb.case" format="2">
	<advance width="600"/>
	<anchor x="165" y="701" name="_top"/>
	<outline>
		<contour>
			<point x="242" y="761" type="line"/>
			<point x="268" y="808" type="line"/>
			<point x="266" y="816" type="line"/>
			<point x="51" y="954" type="line"/>
			<point x="42" y="951" type="line"/>
			<point x="0" y="872" type="line"/>
			<point x="1" y="862" type="line"/>
			<point x="235" y="761" type="line"/>
		</contour>
	</outline>
</glyph>
<glyph name="hexagono.001" format="2">
	<advance width="662"/>
	<outline>
		<contour>
			<point x="195" y="586" type="line"/>
			<point x="467" y="586" type="line"/>
			<point x="602" y="353" type="line"/>
			<point x="467" y="114" type="line"/>
			<point x="195" y="114" type="line"/>
			<point x="60" y="353" type="line"/>
		</contour>
	</outline>
</glyph>
<glyph name="nine.osf" format="2">
	<advance width="546"/>
	<outline>
		<contour>
			<point x="292" y="-132"/>
			<point x="496" y="-10"/>
			<point x="496" y="234" type="curve" smooth="yes"/>
			<point x="496" y="417"/>
			<point x="413" y="520"/>
			<point x="276" y="520" type="curve" smooth="yes"/>
			<point x="131" y="520"/>
			<point x="50" y="414"/>
			<point x="50" y="285" type="curve" smooth="yes"/>
			<point x="50" y="127"/>
			<point x="136" y="56"/>
			<point x="252" y="56" type="curve"/>
			<point x="337" y="56"/>
			<point x="389" y="111"/>
			<point x="434" y="168" type="curve"/>
			<point x="408" y="204" type="line"/>
			<point x="375" y="169"/>
			<point x="328" y="136"/>
			<point x="269" y="136" type="curve"/>
			<point x="185" y="136"/>
			<point x="140" y="202"/>
			<point x="140" y="291" type="curve" smooth="yes"/>
			<point x="140" y="381"/>
			<point x="184" y="435"/>
			<point x="278" y="435" type="curve" smooth="yes"/>
			<point x="357" y="435"/>
			<point x="403" y="371"/>
			<point x="403" y="224" type="curve" smooth="yes"/>
			<point x="403" y="51"/>
			<point x="215" y="-78"/>
			<point x="107" y="-160" type="curve"/>
			<point x="105" y="-165" type="line"/>
			<point x="140" y="-218" type="line"/>
			<point x="147" y="-221" type="line"/>
		</contour>
	</outline>
</glyph>
<glyph name="northEastArrow.alt" format="2">
	<advance width="750"/>
	<outline>
		<contour>
			<point x="375" y="-10" type="curve" smooth="yes"/>
			<point x="575" y="-10"/>
			<point x="700" y="129"/>
			<point x="700" y="350" type="curve" smooth="yes"/>
			<point x="700" y="571"/>
			<point x="575" y="710"/>
			<point x="375" y="710" type="curve" smooth="yes"/>
			<point x="175" y="710"/>
			<point x="50" y="571"/>
			<point x="50" y="350" type="curve" smooth="yes"/>
			<point x="50" y="129"/>
			<point x="175" y="-10"/>
		</contour>
		<contour>
			<point x="375" y="55" type="curve" smooth="yes"/>
			<point x="208" y="55"/>
			<point x="120" y="155"/>
			<point x="120" y="350" type="curve" smooth="yes"/>
			<point x="120" y="545"/>
			<point x="208" y="645"/>
			<point x="375" y="645" type="curve" smooth="yes"/>
			<point x="542" y="645"/>
			<point x="630" y="545"/>
			<point x="630" y="350" type="curve" smooth="yes"/>
			<point x="630" y="155"/>
			<point x="542" y="55"/>
		</contour>
		<contour>
			<point x="452" y="240" type="curve"/>
			<point x="459" y="231" type="line"/>
			<point x="523" y="231" type="line"/>
			<point x="531" y="240" type="line"/>
			<point x="523" y="487" type="line"/>
			<point x="499" y="510" type="line"/>
			<point x="254" y="516" type="line"/>
			<point x="245" y="508" type="line"/>
			<point x="245" y="445" type="line"/>
			<point x="254" y="437" type="line"/>
			<point x="306" y="441"/>
			<point x="358" y="444"/>
			<point x="438" y="449" type="curve"/>
			<point x="430" y="468" type="line"/>
			<point x="348" y="389"/>
			<point x="231" y="278"/>
			<point x="189" y="239" type="curve"/>
			<point x="189" y="227" type="line"/>
			<point x="241" y="175" type="line"/>
			<point x="253" y="175" type="line"/>
			<point x="293" y="217"/>
			<point x="403" y="332"/>
			<point x="483" y="415" type="curve"/>
			<point x="464" y="423" type="line"/>
			<point x="459" y="344"/>
			<point x="455" y="292"/>
		</contour>
	</outline>
</glyph>
<glyph name="persona.cuadro" format="2">
	<advance width="524"/>
	<guideline x="274" y="65" angle="90" identifier="DMui4pgNGC"/>
	<outline>
		<contour>
			<point x="373" y="294" type="line"/>
			<point x="323" y="294" type="line"/>
			<point x="318" y="73" type="line" smooth="yes"/>
			<point x="318" y="58"/>
			<point x="310" y="53"/>
			<point x="297" y="53" type="curve" smooth="yes"/>
			<point x="254" y="53" type="line" smooth="yes"/>
			<point x="241" y="53"/>
			<point x="233" y="58"/>
			<point x="233" y="73" type="curve" smooth="yes"/>
			<point x="227" y="294" type="line"/>
			<point x="177" y="294" type="line"/>
			<point x="192" y="45" type="line" smooth="yes"/>
			<point x="194" y="16"/>
			<point x="208" y="0"/>
			<point x="235" y="0" type="curve" smooth="yes"/>
			<point x="316" y="0" type="line" smooth="yes"/>
			<point x="344" y="0"/>
			<point x="357" y="16"/>
			<point x="359" y="45" type="curve" smooth="yes"/>
		</contour>
		<contour>
			<point x="274" y="477" type="curve" smooth="yes"/>
			<point x="354" y="477"/>
			<point x="388" y="519"/>
			<point x="388" y="594" type="curve" smooth="yes"/>
			<point x="388" y="668"/>
			<point x="344" y="710"/>
			<point x="274" y="710" type="curve" smooth="yes"/>
			<point x="195" y="710"/>
			<point x="161" y="668"/>
			<point x="161" y="594" type="curve" smooth="yes"/>
			<point x="161" y="519"/>
			<point x="195" y="477"/>
		</contour>
		<contour>
			<point x="274" y="530" type="curve" smooth="yes"/>
			<point x="229" y="530"/>
			<point x="220" y="549"/>
			<point x="220" y="594" type="curve" smooth="yes"/>
			<point x="220" y="638"/>
			<point x="229" y="657"/>
			<point x="274" y="657" type="curve" smooth="yes"/>
			<point x="320" y="657"/>
			<point x="329" y="638"/>
			<point x="329" y="594" type="curve" smooth="yes"/>
			<point x="329" y="549"/>
			<point x="320" y="530"/>
		</contour>
		<contour>
			<point x="284" y="388" type="line"/>
			<point x="284" y="438" type="line"/>
			<point x="181" y="438" type="line" smooth="yes"/>
			<point x="102" y="438"/>
			<point x="70.90695" y="394.8688"/>
			<point x="75" y="298" type="curve" smooth="yes"/>
			<point x="78" y="227" type="line" smooth="yes"/>
			<point x="81" y="161"/>
			<point x="107" y="135"/>
			<point x="168" y="135" type="curve" smooth="yes"/>
			<point x="199" y="135" type="line"/>
			<point x="199" y="185" type="line"/>
			<point x="178" y="185" type="line" smooth="yes"/>
			<point x="147" y="185"/>
			<point x="135" y="201"/>
			<point x="133" y="241" type="curve" smooth="yes"/>
			<point x="130" y="295" type="line" smooth="yes"/>
			<point x="126.08223" y="365.51986"/>
			<point x="148" y="388"/>
			<point x="200" y="388" type="curve" smooth="yes"/>
		</contour>
		<contour>
			<point x="264" y="388" type="line"/>
			<point x="348" y="388" type="line" smooth="yes"/>
			<point x="401" y="388"/>
			<point x="421.94315" y="365.97677"/>
			<point x="418" y="295" type="curve" smooth="yes"/>
			<point x="415" y="241" type="line" smooth="yes"/>
			<point x="412.77821" y="201.00773"/>
			<point x="401" y="185"/>
			<point x="370" y="185" type="curve" smooth="yes"/>
			<point x="349" y="185" type="line"/>
			<point x="349" y="135" type="line"/>
			<point x="380" y="135" type="line" smooth="yes"/>
			<point x="441" y="135"/>
			<point x="467" y="161"/>
			<point x="470" y="227" type="curve" smooth="yes"/>
			<point x="473" y="298" type="line" smooth="yes"/>
			<point x="477.09784" y="394.98231"/>
			<point x="446" y="438"/>
			<point x="367" y="438" type="curve" smooth="yes"/>
			<point x="264" y="438" type="line"/>
		</contour>
	</outline>
</glyph>
<glyph name="persona.triangulo" format="2">
	<advance width="548"/>
	<guideline x="274" y="65" angle="90" identifier="Dqq0cRREer"/>
	<outline>
		<contour>
			<point x="273" y="477" type="curve" smooth="yes"/>
			<point x="194" y="477"/>
			<point x="160" y="519"/>
			<point x="160" y="594" type="curve" smooth="yes"/>
			<point x="160" y="668"/>
			<point x="194" y="710"/>
			<point x="273" y="710" type="curve" smooth="yes"/>
			<point x="343" y="710"/>
			<point x="387" y="668"/>
			<point x="387" y="594" type="curve" smooth="yes"/>
			<point x="387" y="519"/>
			<point x="353" y="477"/>
		</contour>
		<contour>
			<point x="273" y="530" type="curve" smooth="yes"/>
			<point x="319" y="530"/>
			<point x="328" y="549"/>
			<point x="328" y="594" type="curve" smooth="yes"/>
			<point x="328" y="638"/>
			<point x="319" y="657"/>
			<point x="273" y="657" type="curve" smooth="yes"/>
			<point x="228" y="657"/>
			<point x="219" y="638"/>
			<point x="219" y="594" type="curve" smooth="yes"/>
			<point x="219" y="549"/>
			<point x="228" y="530"/>
		</contour>
		<contour>
			<point x="238" y="0" type="line" smooth="yes"/>
			<point x="207" y="0"/>
			<point x="194" y="16"/>
			<point x="192" y="44" type="curve" smooth="yes"/>
			<point x="187" y="124" type="line"/>
			<point x="231" y="124" type="line"/>
			<point x="233" y="74" type="line" smooth="yes"/>
			<point x="234" y="60"/>
			<point x="238" y="53"/>
			<point x="256" y="53" type="curve" smooth="yes"/>
			<point x="294" y="53" type="line" smooth="yes"/>
			<point x="312" y="53"/>
			<point x="316" y="60"/>
			<point x="317" y="74" type="curve" smooth="yes"/>
			<point x="319" y="124" type="line"/>
			<point x="363" y="124" type="line"/>
			<point x="358" y="44" type="line" smooth="yes"/>
			<point x="356" y="16"/>
			<point x="343" y="0"/>
			<point x="312" y="0" type="curve" smooth="yes"/>
		</contour>
		<contour>
			<point x="274" y="388" type="line"/>
			<point x="200" y="388" type="line" smooth="yes"/>
			<point x="148" y="388"/>
			<point x="128" y="366"/>
			<point x="130" y="295" type="curve" smooth="yes"/>
			<point x="131" y="261" type="line" smooth="yes"/>
			<point x="132" y="221"/>
			<point x="145" y="205"/>
			<point x="176" y="205" type="curve" smooth="yes"/>
			<point x="179" y="205" type="line"/>
			<point x="179" y="155" type="line"/>
			<point x="166" y="155" type="line" smooth="yes"/>
			<point x="105" y="155"/>
			<point x="77.29402" y="181.00511"/>
			<point x="76" y="247" type="curve" smooth="yes"/>
			<point x="75" y="298" type="line" smooth="yes"/>
			<point x="73" y="395"/>
			<point x="102" y="438"/>
			<point x="181" y="438" type="curve" smooth="yes"/>
			<point x="274" y="438" type="line"/>
		</contour>
		<contour>
			<point x="185" y="100" type="line" smooth="yes"/>
			<point x="152.5" y="100"/>
			<point x="136.33501" y="120.28492"/>
			<point x="146" y="154" type="curve" smooth="yes"/>
			<point x="189" y="304" type="line"/>
			<point x="234" y="304" type="line"/>
			<point x="199" y="185" type="line" smooth="yes"/>
			<point x="192" y="161"/>
			<point x="202.52" y="147"/>
			<point x="221" y="147" type="curve" smooth="yes"/>
			<point x="328" y="147" type="line" smooth="yes"/>
			<point x="345.5" y="147"/>
			<point x="356" y="161"/>
			<point x="349" y="186" type="curve" smooth="yes"/>
			<point x="315" y="304" type="line"/>
			<point x="360" y="304" type="line"/>
			<point x="403" y="154" type="line" smooth="yes"/>
			<point x="412.66499" y="120.28492"/>
			<point x="396.90625" y="100"/>
			<point x="364" y="100" type="curve" smooth="yes"/>
		</contour>
		<contour>
			<point x="274" y="388" type="line"/>
			<point x="274" y="438" type="line"/>
			<point x="367" y="438" type="line" smooth="yes"/>
			<point x="446" y="438"/>
			<point x="475" y="395"/>
			<point x="473" y="298" type="curve" smooth="yes"/>
			<point x="472" y="247" type="line" smooth="yes"/>
			<point x="471" y="181"/>
			<point x="443" y="155"/>
			<point x="382" y="155" type="curve" smooth="yes"/>
			<point x="369" y="155" type="line"/>
			<point x="369" y="205" type="line"/>
			<point x="372" y="205" type="line" smooth="yes"/>
			<point x="403" y="205"/>
			<point x="416" y="221"/>
			<point x="417" y="261" type="curve" smooth="yes"/>
			<point x="418" y="295" type="line" smooth="yes"/>
			<point x="420" y="366"/>
			<point x="400" y="388"/>
			<point x="348" y="388" type="curve" smooth="yes"/>
		</contour>
	</outline>
</glyph>
<glyph name="seven.tf" format="2">
	<advance width="600"/>
	<outline>
		<contour>
			<point x="457" y="611" type="curve"/>
			<point x="445" y="631" type="line"/>
			<point x="364" y="445"/>
			<point x="253" y="186"/>
			<point x="174" y="10" type="curve"/>
			<point x="179" y="0" type="line"/>
			<point x="276" y="0" type="line"/>
			<point x="284" y="10" type="line"/>
			<point x="323" y="135"/>
			<point x="435" y="449"/>
			<point x="510" y="625" type="curve"/>
			<point x="511" y="638" type="line"/>
			<point x="506" y="695" type="line"/>
			<point x="498" y="700" type="line"/>
			<point x="431" y="697"/>
			<point x="372" y="695"/>
			<point x="305" y="695" type="curve" smooth="yes"/>
			<point x="238" y="695"/>
			<point x="187" y="697"/>
			<point x="104" y="700" type="curve"/>
			<point x="99" y="694" type="line"/>
			<point x="90" y="612" type="line"/>
			<point x="99" y="605" type="line"/>
			<point x="219" y="611"/>
			<point x="328" y="611"/>
		</contour>
	</outline>
</glyph>
<glyph name="sol" format="2">
	<advance width="738"/>
	<outline>
		<contour>
			<point x="341" y="551" type="line"/>
			<point x="349" y="545" type="line"/>
			<point x="389" y="545" type="line"/>
			<point x="397" y="551" type="line"/>
			<point x="409" y="688" type="line"/>
			<point x="404" y="698" type="line"/>
			<point x="335" y="698" type="line"/>
			<point x="330" y="688" type="line"/>
		</contour>
		<contour>
			<point x="341" y="147" type="line"/>
			<point x="330" y="10" type="line"/>
			<point x="335" y="0" type="line"/>
			<point x="404" y="0" type="line"/>
			<point x="409" y="10" type="line"/>
			<point x="397" y="147" type="line"/>
			<point x="389" y="153" type="line"/>
			<point x="349" y="153" type="line"/>
		</contour>
		<contour>
			<point x="369" y="200" type="curve" smooth="yes"/>
			<point x="457" y="200"/>
			<point x="496" y="252"/>
			<point x="496" y="345" type="curve" smooth="yes"/>
			<point x="496" y="438"/>
			<point x="447" y="489"/>
			<point x="369" y="489" type="curve" smooth="yes"/>
			<point x="282" y="489"/>
			<point x="243" y="438"/>
			<point x="243" y="345" type="curve" smooth="yes"/>
			<point x="243" y="252"/>
			<point x="282" y="200"/>
		</contour>
		<contour>
			<point x="369" y="260" type="curve" smooth="yes"/>
			<point x="319" y="260"/>
			<point x="309" y="289"/>
			<point x="309" y="345" type="curve" smooth="yes"/>
			<point x="309" y="400"/>
			<point x="319" y="429"/>
			<point x="369" y="429" type="curve" smooth="yes"/>
			<point x="421" y="429"/>
			<point x="430" y="400"/>
			<point x="430" y="345" type="curve" smooth="yes"/>
			<point x="430" y="289"/>
			<point x="421" y="260"/>
		</contour>
		<contour>
			<point x="562" y="378" type="line"/>
			<point x="556" y="370" type="line"/>
			<point x="556" y="330" type="line"/>
			<point x="562" y="322" type="line"/>
			<point x="679" y="310" type="line"/>
			<point x="689" y="315" type="line"/>
			<point x="689" y="384" type="line"/>
			<point x="679" y="389" type="line"/>
		</contour>
		<contour>
			<point x="178" y="378" type="line"/>
			<point x="61" y="389" type="line"/>
			<point x="51" y="384" type="line"/>
			<point x="51" y="315" type="line"/>
			<point x="61" y="310" type="line"/>
			<point x="178" y="322" type="line"/>
			<point x="184" y="330" type="line"/>
			<point x="184" y="370" type="line"/>
		</contour>
		<contour>
			<point x="207" y="472" type="line"/>
			<point x="216" y="473" type="line"/>
			<point x="245" y="501" type="line"/>
			<point x="246" y="511" type="line"/>
			<point x="158" y="617" type="line"/>
			<point x="147" y="620" type="line"/>
			<point x="98" y="571" type="line"/>
			<point x="102" y="561" type="line"/>
		</contour>
		<contour>
			<point x="492" y="186" type="line"/>
			<point x="581" y="81" type="line"/>
			<point x="592" y="78" type="line"/>
			<point x="641" y="127" type="line"/>
			<point x="637" y="137" type="line"/>
			<point x="532" y="226" type="line"/>
			<point x="522" y="224" type="line"/>
			<point x="494" y="196" type="line"/>
		</contour>
		<contour>
			<point x="492" y="512" type="line"/>
			<point x="494" y="502" type="line"/>
			<point x="522" y="474" type="line"/>
			<point x="532" y="472" type="line"/>
			<point x="637" y="561" type="line"/>
			<point x="641" y="571" type="line"/>
			<point x="592" y="620" type="line"/>
			<point x="581" y="617" type="line"/>
		</contour>
		<contour>
			<point x="207" y="226" type="line"/>
			<point x="102" y="137" type="line"/>
			<point x="98" y="127" type="line"/>
			<point x="147" y="78" type="line"/>
			<point x="158" y="81" type="line"/>
			<point x="246" y="187" type="line"/>
			<point x="245" y="197" type="line"/>
			<point x="216" y="225" type="line"/>
		</contour>
	</outline>
</glyph>
<glyph name="three.tf" format="2">
	<advance width="600"/>
	<outline>
		<contour>
			<point x="279" y="-10" type="curve"/>
			<point x="395" y="-10"/>
			<point x="517" y="72"/>
			<point x="517" y="221" type="curve" smooth="yes"/>
			<point x="517" y="367"/>
			<point x="418" y="437"/>
			<point x="271" y="383" type="curve"/>
			<point x="278" y="368" type="line"/>
			<point x="394" y="405"/>
			<point x="471" y="463"/>
			<point x="471" y="560" type="curve" smooth="yes"/>
			<point x="471" y="663"/>
			<point x="396" y="710"/>
			<point x="306" y="710" type="curve"/>
			<point x="234" y="710"/>
			<point x="166" y="682"/>
			<point x="105" y="645" type="curve"/>
			<point x="103" y="640" type="line"/>
			<point x="125" y="591" type="line"/>
			<point x="129" y="589" type="line"/>
			<point x="190" y="612"/>
			<point x="231" y="626"/>
			<point x="282" y="626" type="curve" smooth="yes"/>
			<point x="342" y="626"/>
			<point x="381" y="604"/>
			<point x="381" y="551" type="curve"/>
			<point x="381" y="479"/>
			<point x="324" y="445"/>
			<point x="231" y="402" type="curve" smooth="yes"/>
			<point x="192" y="384" type="line"/>
			<point x="207" y="335" type="line"/>
			<point x="262" y="349" type="line" smooth="yes"/>
			<point x="361" y="374"/>
			<point x="427" y="315"/>
			<point x="427" y="226" type="curve" smooth="yes"/>
			<point x="427" y="117"/>
			<point x="379" y="74"/>
			<point x="305" y="74" type="curve"/>
			<point x="245" y="74"/>
			<point x="164" y="104"/>
			<point x="112" y="125" type="curve"/>
			<point x="104" y="124" type="line"/>
			<point x="70" y="35" type="line"/>
			<point x="76" y="27" type="line"/>
			<point x="134" y="6"/>
			<point x="199" y="-10"/>
		</contour>
	</outline>
</glyph>
<glyph name="triangulo.001" format="2">
	<advance width="623"/>
	<outline>
		<contour>
			<point x="55" y="111" type="line"/>
			<point x="569" y="111" type="line"/>
			<point x="573" y="119" type="line"/>
			<point x="315" y="563" type="line"/>
			<point x="302" y="563" type="line"/>
			<point x="50" y="122" type="line"/>
		</contour>
	</outline>
</glyph>
<glyph name="triangulo" format="2">
	<advance width="652"/>
	<outline>
		<contour>
			<point x="55" y="115" type="line"/>
			<point x="598" y="115" type="line"/>
			<point x="602" y="123" type="line"/>
			<point x="330" y="592" type="line"/>
			<point x="316" y="592" type="line"/>
			<point x="50" y="127" type="line"/>
		</contour>
		<contour>
			<point x="166" y="180" type="line"/>
			<point x="161" y="189" type="line"/>
			<point x="319" y="465" type="line"/>
			<point x="329" y="465" type="line"/>
			<point x="492" y="188" type="line"/>
			<point x="488" y="180" type="line"/>
		</contour>
	</outline>
</glyph>
<glyph name="two.osf" format="2">
	<advance width="493"/>
	<outline>
		<contour>
			<point x="60" y="0" type="line"/>
			<point x="130" y="1"/>
			<point x="209" y="4"/>
			<point x="269" y="4" type="curve" smooth="yes"/>
			<point x="327.73016" y="4"/>
			<point x="392.33198" y="0.95772"/>
			<point x="454" y="-1" type="curve"/>
			<point x="459" y="5" type="line"/>
			<point x="463" y="84" type="line"/>
			<point x="454" y="91" type="line"/>
			<point x="105" y="71" type="line"/>
			<point x="106" y="52" type="line"/>
			<point x="242.30591" y="130.59976"/>
			<point x="400" y="258"/>
			<point x="400" y="380" type="curve" smooth="yes"/>
			<point x="400" y="473"/>
			<point x="337" y="520"/>
			<point x="247" y="520" type="curve"/>
			<point x="163.78505" y="520"/>
			<point x="94" y="490"/>
			<point x="35" y="460" type="curve"/>
			<point x="32" y="451" type="line"/>
			<point x="49" y="406" type="line"/>
			<point x="58" y="401" type="line"/>
			<point x="112" y="420"/>
			<point x="161" y="435"/>
			<point x="216" y="435" type="curve"/>
			<point x="265.81395" y="435"/>
			<point x="300" y="416"/>
			<point x="300" y="363" type="curve" smooth="yes"/>
			<point x="300" y="255"/>
			<point x="110.64537" y="116.73895"/>
			<point x="39" y="64" type="curve"/>
			<point x="38" y="54" type="line"/>
			<point x="54" y="5" type="line"/>
		</contour>
	</outline>
</glyph>
